<svg width="500" height="500" viewBox="0 0 500 500" fill="none" xmlns="http://www.w3.org/2000/svg">
<path d="M228.85 389.14L388.26 367.81L455.24 415.28L297.99 446.69L228.85 389.14Z" fill="#455A64"/>
<path d="M228.85 389.14L297.99 446.69L455.24 415.28V417.91L297.66 449.15L228.85 391.4V389.14Z" fill="#263238"/>
<path d="M238.5 389.64L301.79 442.49L449.15 413.16L384.35 367.6C384.35 367.6 341.35 367.88 339.27 368.24C337.19 368.6 317.58 374 317.58 374C317.58 374 290.81 375.28 288.96 375.65C287.7 375.91 260.72 380.65 246.2 384.74L238.5 389.64Z" fill="white"/>
<path d="M317.58 374.03L324.87 380.18L332.1 386.39L346.49 398.92L360.75 411.59L367.83 417.97L374.86 424.42L367.57 418.27L360.34 412.06L345.95 399.53L331.69 386.86L324.61 380.48L317.58 374.03Z" fill="#DBDBDB"/>
<path d="M373.86 415.13C378.4 413.577 382.987 412.18 387.62 410.94C388.78 410.63 389.93 410.3 391.1 410.03C391.69 409.89 392.27 409.76 392.9 409.66L394.68 409.42L401.8 408.42C406.54 407.76 411.3 407.18 416.05 406.55C420.8 405.92 425.55 405.37 430.31 404.81C425.58 405.58 420.85 406.34 416.11 407.05C411.37 407.76 406.64 408.5 401.9 409.16L394.79 410.16L393.01 410.41C392.46 410.51 391.87 410.66 391.3 410.8L387.82 411.66C383.19 412.91 378.55 414.09 373.86 415.13Z" fill="#DBDBDB"/>
<path d="M369.67 410.91C374.137 409.65 378.637 408.523 383.17 407.53C385.44 407.03 387.68 406.53 390.02 406.17L396.9 405.17C401.49 404.5 406.08 403.9 410.68 403.27C415.28 402.64 419.87 402.06 424.47 401.5C419.9 402.28 415.33 403.05 410.75 403.77C406.17 404.49 401.59 405.24 397 405.91L390.12 406.91C388.98 407.07 387.88 407.32 386.74 407.55L383.33 408.23C378.803 409.23 374.25 410.123 369.67 410.91Z" fill="#DBDBDB"/>
<path d="M365.59 407.1C370.03 405.89 374.5 404.77 379 403.79C381.25 403.3 383.48 402.79 385.78 402.39L392.65 401.6C397.22 401.07 401.81 400.6 406.38 400.11C410.95 399.62 415.55 399.19 420.13 398.76C415.57 399.41 411.01 400.04 406.45 400.62C401.89 401.2 397.32 401.81 392.75 402.35C390.47 402.64 388.17 402.89 385.91 403.2L379.16 404.54C374.66 405.513 370.137 406.367 365.59 407.1Z" fill="#DBDBDB"/>
<path d="M362.05 404.23C366.38 402.55 370.79 401.15 375.26 399.89C375.82 399.73 376.38 399.59 376.96 399.47C377.54 399.345 378.128 399.258 378.72 399.21L382.18 398.9L389.1 398.3C398.32 397.56 407.55 396.85 416.79 396.3C407.59 397.3 398.37 398.18 389.16 399.07L382.25 399.71L378.8 400.04C377.672 400.173 376.558 400.404 375.47 400.73C371 401.87 366.57 403.19 362.05 404.23Z" fill="#DBDBDB"/>
<path d="M358.21 400.78C362.54 399.1 366.95 397.7 371.41 396.44C371.98 396.28 372.54 396.14 373.11 396.02C373.694 395.895 374.285 395.808 374.88 395.76L378.34 395.45L385.26 394.85C394.48 394.11 403.71 393.4 412.95 392.85C403.75 393.85 394.53 394.73 385.32 395.61L378.41 396.26L374.96 396.59C373.832 396.723 372.718 396.954 371.63 397.28C367.17 398.42 362.73 399.73 358.21 400.78Z" fill="#DBDBDB"/>
<path d="M354.37 397.32C358.69 395.65 363.1 394.25 367.57 392.99C368.13 392.83 368.7 392.69 369.27 392.57C369.853 392.44 370.444 392.353 371.04 392.31L374.5 392L381.41 391.4C390.64 390.66 399.87 389.95 409.11 389.4C399.9 390.4 390.69 391.28 381.48 392.16L374.57 392.81L371.12 393.14C369.991 393.268 368.877 393.499 367.79 393.83C363.32 395 358.89 396.28 354.37 397.32Z" fill="#DBDBDB"/>
<path d="M391.82 387.06C396.76 386.69 400.02 386.62 404.96 386.3C395.76 387.3 392.96 387.41 383.71 388.3C386.381 387.696 389.091 387.282 391.82 387.06V387.06Z" fill="#DBDBDB"/>
<path d="M246.2 384.77L306.35 432.69C306.35 432.69 340.1 425.21 346.42 424.21C352.74 423.21 375.15 424.44 375.15 424.44C375.15 424.44 402.71 415.22 414.47 413.44C426.23 411.66 443.47 410.87 443.47 410.87L449.1 413.12L378.2 427.23L301.74 442.45L238.5 389.64L246.2 384.77Z" fill="#EBEBEB"/>
<path d="M395.33 249.28C412.28 265.87 415.13 291.55 411.55 314.03C411.46 314.54 410.67 314.4 410.67 313.92C410.67 308.8 410.83 303.73 410.81 298.67L410.55 297.99C406.13 294.78 402.06 291.14 399.55 286.16C396.72 280.6 395.55 274.32 393.44 268.5C393.24 267.94 393.83 268.11 394.22 268.4C404.53 276 407.82 284.18 410.78 295.12C410.713 289.409 410.111 283.718 408.98 278.12C406.75 267.74 402.35 257.46 394.89 249.76C394.6 249.43 395 249 395.33 249.28Z" fill="#263238"/>
<path d="M392.15 251.21C389.23 251.31 387.4 255.97 385.15 257.33C384.912 257.524 384.636 257.667 384.339 257.747C384.042 257.828 383.732 257.845 383.428 257.798C383.125 257.751 382.834 257.64 382.576 257.474C382.318 257.307 382.098 257.087 381.93 256.83C379.68 253.68 382.77 249.83 385.67 247.64C383.6 248.49 381.87 249.99 379.67 250.42C379.384 250.513 379.08 250.544 378.781 250.51C378.482 250.475 378.193 250.377 377.935 250.222C377.677 250.066 377.456 249.857 377.286 249.608C377.116 249.359 377.001 249.077 376.95 248.78C375.95 244.5 381.33 242.59 385.02 242.5C383.23 241.26 378.11 237.88 380.83 236.22C383.55 234.56 389.6 239.38 391.56 240.97C394.45 243.31 397.88 246.81 398.01 250.47C398.12 254.74 394.39 252.11 392.15 251.21Z" fill="#ED9902"/>
<path opacity="0.1" d="M392.15 251.21C389.23 251.31 387.4 255.97 385.15 257.33C384.912 257.524 384.636 257.667 384.339 257.747C384.042 257.828 383.732 257.845 383.428 257.798C383.125 257.751 382.834 257.64 382.576 257.474C382.318 257.307 382.098 257.087 381.93 256.83C379.68 253.68 382.77 249.83 385.67 247.64C383.6 248.49 381.87 249.99 379.67 250.42C379.384 250.513 379.08 250.544 378.781 250.51C378.482 250.475 378.193 250.377 377.935 250.222C377.677 250.066 377.456 249.857 377.286 249.608C377.116 249.359 377.001 249.077 376.95 248.78C375.95 244.5 381.33 242.59 385.02 242.5C383.23 241.26 378.11 237.88 380.83 236.22C383.55 234.56 389.6 239.38 391.56 240.97C394.45 243.31 397.88 246.81 398.01 250.47C398.12 254.74 394.39 252.11 392.15 251.21Z" fill="black"/>
<path d="M393 251.93C389.27 250.24 382.11 252.68 381.5 251.26C380.27 248.39 385.99 246.42 389.08 246.04C386.23 245.27 380.78 244.04 380.95 241.3C381.15 237.95 389.31 240.83 393.44 243.99C398.64 247.99 398.61 251.83 397.75 252.6C396.56 253.66 393.61 252.21 393 251.93Z" fill="#ED9902"/>
<path d="M433.93 247.64C416.37 263.57 412.55 289.12 415.26 311.73C415.33 312.24 416.13 312.13 416.14 311.65C416.34 306.54 416.38 301.46 416.59 296.41L416.87 295.74C421.42 292.69 425.62 289.21 428.33 284.33C431.33 278.88 432.72 272.65 435.1 266.92C435.33 266.37 434.73 266.51 434.33 266.78C423.74 274 420.14 282 416.77 292.85C417.045 287.139 417.862 281.467 419.21 275.91C421.83 265.62 426.62 255.51 434.37 248.1C434.65 247.82 434.24 247.35 433.93 247.64Z" fill="#263238"/>
<path d="M437 249.69C439.91 249.9 441.56 254.63 443.78 256.07C444.011 256.274 444.282 256.427 444.576 256.519C444.869 256.611 445.179 256.64 445.485 256.604C445.791 256.568 446.085 256.468 446.35 256.31C446.614 256.153 446.843 255.942 447.02 255.69C449.39 252.63 446.45 248.64 443.63 246.36C445.63 247.3 447.34 248.86 449.56 249.36C449.843 249.464 450.145 249.506 450.446 249.484C450.746 249.461 451.039 249.375 451.303 249.23C451.568 249.085 451.798 248.885 451.978 248.643C452.159 248.402 452.286 248.125 452.35 247.83C453.5 243.59 448.2 241.48 444.52 241.25C446.35 240.08 451.6 236.89 448.94 235.13C446.28 233.37 440.06 237.96 438.04 239.47C435.04 241.7 431.5 245.06 431.23 248.71C430.94 253 434.77 250.5 437 249.69Z" fill="#ED9902"/>
<path opacity="0.1" d="M437 249.69C439.91 249.9 441.56 254.63 443.78 256.07C444.011 256.274 444.282 256.427 444.576 256.519C444.869 256.611 445.179 256.64 445.485 256.604C445.791 256.568 446.085 256.468 446.35 256.31C446.614 256.153 446.843 255.942 447.02 255.69C449.39 252.63 446.45 248.64 443.63 246.36C445.63 247.3 447.34 248.86 449.56 249.36C449.843 249.464 450.145 249.506 450.446 249.484C450.746 249.461 451.039 249.375 451.303 249.23C451.568 249.085 451.798 248.885 451.978 248.643C452.159 248.402 452.286 248.125 452.35 247.83C453.5 243.59 448.2 241.48 444.52 241.25C446.35 240.08 451.6 236.89 448.94 235.13C446.28 233.37 440.06 237.96 438.04 239.47C435.04 241.7 431.5 245.06 431.23 248.71C430.94 253 434.77 250.5 437 249.69Z" fill="black"/>
<path d="M436.17 250.38C439.96 248.82 447.03 251.53 447.69 250.15C449.03 247.32 443.39 245.15 440.32 244.64C443.19 243.98 448.68 242.96 448.62 240.21C448.54 236.85 440.28 239.42 436.04 242.43C430.69 246.22 430.57 250.06 431.4 250.87C432.54 252 435.55 250.63 436.17 250.38Z" fill="#ED9902"/>
<path d="M416 289.73C414.808 298.254 412.983 306.677 410.54 314.93C410.495 315.081 410.395 315.21 410.26 315.291C410.125 315.372 409.965 315.4 409.811 315.368C409.656 315.337 409.519 315.249 409.426 315.121C409.334 314.994 409.292 314.837 409.31 314.68C410.47 306.91 412.57 299.29 413.73 291.53C414.989 283.67 415.441 275.702 415.08 267.75C414.34 254.67 410.78 240.75 402.24 230.51C402.06 230.27 402.45 229.92 402.65 230.15C419.71 250.08 417 274.52 417 276.71C419.42 268.46 421.91 259 431.07 250.6C431.46 250.24 431.77 250.41 431.7 251.02C430.07 266.33 425.81 274.32 416.94 282.5C416.68 284.933 416.367 287.343 416 289.73Z" fill="#263238"/>
<path d="M402.06 232.8C398.98 231.44 394.74 235.35 391.7 235.62C390.09 235.77 388.9 235.13 388.61 233.47C387.86 229.08 393.02 226.61 397.12 225.82C394.54 225.66 391.99 226.35 389.46 225.67C387.92 225.24 387.08 224.19 387.46 222.6C388.59 217.66 395.13 218.39 399 220.15C397.77 217.96 394.15 211.87 397.81 211.52C401.47 211.17 405.32 219.22 406.56 221.86C408.37 225.73 410.18 231.09 408.47 234.95C406.49 239.47 403.94 234.86 402.06 232.8Z" fill="#ED9902"/>
<path opacity="0.1" d="M402.06 232.8C398.98 231.44 394.74 235.35 391.7 235.62C390.09 235.77 388.9 235.13 388.61 233.47C387.86 229.08 393.02 226.61 397.12 225.82C394.54 225.66 391.99 226.35 389.46 225.67C387.92 225.24 387.08 224.19 387.46 222.6C388.59 217.66 395.13 218.39 399 220.15C397.77 217.96 394.15 211.87 397.81 211.52C401.47 211.17 405.32 219.22 406.56 221.86C408.37 225.73 410.18 231.09 408.47 234.95C406.49 239.47 403.94 234.86 402.06 232.8Z" fill="black"/>
<path d="M402.57 234C399.57 230.37 390.9 229.29 390.98 227.52C391.14 223.92 398.07 224.76 401.47 225.92C398.91 223.69 393.87 219.67 395.42 216.92C397.32 213.55 404.33 220.65 407.02 226.01C410.41 232.77 408.44 236.74 407.16 237.11C405.4 237.56 403.07 234.57 402.57 234Z" fill="#ED9902"/>
<path d="M427.22 294.33L434.76 351.94H388.87C389.82 346.84 398.36 294.27 398.36 294.27L427.22 294.33Z" fill="#ED9902"/>
<path d="M45.75 351.7L96.82 351.46L147.88 351.37L250 351.2L352.12 351.37L403.19 351.46L454.25 351.7L403.19 351.95L352.12 352.04L250 352.2L147.88 352.04L96.82 351.95L45.75 351.7Z" fill="#263238"/>
<path d="M126 163.89C115.35 185.06 99 208.66 99 233.23C99 252.48 109.23 270 121.74 284C149.3 314.63 196.54 338.2 235.94 314.88C251.66 305.56 266.05 277.88 254.76 260.35C248.95 251.35 239.76 245.76 231.63 239.1C220.89 230.35 215.15 219.55 214.63 205.64C213.53 178.54 223.01 163.31 231.63 138.4C233.21 133.77 234.14 128.93 231.43 123.21C229.233 117.571 225.541 112.638 220.75 108.94C217.062 104.895 212.431 101.824 207.27 100C196.16 96.35 181.58 101.57 170.64 104C159.7 106.43 152.85 111.19 147.53 121.33C140.15 135.38 133.18 149.69 126 163.89Z" fill="#263238"/>
<path d="M118.77 172.88C129.77 154.11 141.17 135.58 152.44 116.97C152.51 116.85 152.7 116.97 152.63 117.06C143.8 132.64 135.2 148.33 126.17 163.81C117.32 178.97 107.17 193.96 99.69 209.81C82.87 245.48 113.29 276.72 144.69 288.68C146.12 289.22 145.09 291.44 143.69 290.84C116.48 279.47 88.49 255.84 93.48 223C96.16 205.05 109.76 188.22 118.77 172.88Z" fill="#263238"/>
<path d="M230.73 135.71C230.774 135.644 230.84 135.596 230.917 135.575C230.993 135.554 231.074 135.561 231.146 135.595C231.218 135.629 231.275 135.688 231.307 135.76C231.339 135.833 231.343 135.914 231.32 135.99C223.32 156.18 212.15 178.99 215.69 201.25C217.434 212.225 222.465 222.414 230.12 230.47C236.18 236.83 243.94 240.63 251.02 245.64C278.72 265.23 260.62 306.37 231.37 312.47C230.76 312.6 230.51 311.54 231.13 311.39C252.21 305.98 267.43 285.77 262.13 263.57C257.92 245.76 236.51 241.2 225.85 227.83C203.82 200.11 217.23 164.17 230.73 135.71Z" fill="#263238"/>
<path d="M184.54 215.38C200.45 263.38 227.61 322.45 242.65 333.57C255.54 343.1 304 355.69 325 354.38C331.17 354 327.29 297.38 320.72 296.57C310.2 295.3 271.08 285.87 270.3 285.68C268.63 285.26 225.38 225.09 207.12 208.26C185.78 188.58 177.42 193.92 184.54 215.38Z" fill="#FFC4C0"/>
<path d="M323.77 311.72C323.77 311.72 358.68 331 360.06 332.53C361.44 334.06 359.32 336.11 357.72 337.76C356.567 338.535 355.337 339.189 354.05 339.71C348.12 342.53 337.77 347.71 342.61 354.48C348.97 363.34 372.25 351.66 375.61 349.26C376.948 348.003 377.999 346.471 378.69 344.77C381.5 338.82 383.69 328.67 379.17 322.11C372.97 313.11 362.68 307 354.17 301.05L323.77 311.72Z" fill="#FFC4C0"/>
<path d="M323.77 311.72C323.77 311.72 358.68 331 360.06 332.53C361.44 334.06 359.32 336.11 357.72 337.76C356.567 338.535 355.337 339.189 354.05 339.71C362.81 341.55 372.49 343.53 378.68 344.77C381.49 338.82 383.68 328.67 379.16 322.11C372.96 313.11 362.67 307 354.16 301.05L323.77 311.72Z" fill="#263238"/>
<path d="M282.87 348.62C285.18 349.01 304.25 355.41 318.62 360.24C328.43 353.84 349.46 343.38 355.02 340.58C360.67 336.42 375.13 330.73 375.43 331.35C376.01 332.5 378.04 336.59 380.9 341.35C384.69 347.63 389.9 355.11 395.06 358.6C397.88 360.49 400.65 361.21 403.19 359.95C407.76 357.7 403.24 347.5 398.94 334.95C393.1 317.85 385 297.15 375.94 293.63C362.54 288.41 341.47 293.43 335.03 294.2C328.59 294.97 301.62 293.2 301.62 293.2C275.55 316.58 279.8 348.08 282.87 348.62Z" fill="#FFC4C0"/>
<path d="M347 285.68C347 285.68 342.22 273.17 351 270.6C359.78 268.03 362.5 281.15 362.5 281.15L347 285.68Z" fill="#FF9BBC"/>
<path d="M362.366 280.665L346.854 285.195L373.259 375.609L388.771 371.079L362.366 280.665Z" fill="#ED9902"/>
<path opacity="0.1" d="M352.562 293.434L351.554 293.728L373.776 369.82L374.784 369.525L352.562 293.434Z" fill="black"/>
<path opacity="0.1" d="M356.037 292.402L355.029 292.696L377.251 368.788L378.259 368.494L356.037 292.402Z" fill="black"/>
<path opacity="0.1" d="M359.505 291.4L358.497 291.694L380.719 367.786L381.727 367.491L359.505 291.4Z" fill="black"/>
<path opacity="0.1" d="M362.989 290.365L361.981 290.66L384.203 366.751L385.211 366.457L362.989 290.365Z" fill="black"/>
<path d="M363.519 279.797L345.406 285.087L346.454 288.677L364.568 283.387L363.519 279.797Z" fill="#37474F"/>
<path d="M364.676 283.773L346.562 289.063L347.611 292.653L365.724 287.363L364.676 283.773Z" fill="#37474F"/>
<path d="M388.78 371.05L386.2 383.91L385.37 388.16L382.37 385.04L373.27 375.58L374.18 372.87C374.18 372.87 376.33 374.65 376.38 374.68L377.29 371.96L379.48 373.77L380.36 371.07C380.36 371.07 382.54 372.84 382.59 372.86L383.47 370.16C383.47 370.16 385.65 371.93 385.69 371.95L386.57 369.25L388.78 371.05Z" fill="#EBEBEB"/>
<path d="M386.2 383.91L385.37 388.16L382.35 385.04L386.2 383.91Z" fill="#37474F"/>
<path d="M318.62 360.24C323.52 361.91 327.87 363.44 330.79 364.56C342.31 368.99 350.14 367.72 358.13 365.14C366.12 362.56 389.68 371.4 384.86 358.48C380.04 345.56 352.55 346.82 352.81 343.15C352.86 342.45 353.69 341.55 355.02 340.58C349.46 343.38 328.43 353.84 318.62 360.24Z" fill="#FFC4C0"/>
<path d="M358.82 338.21C359.12 338.1 359.17 338.31 358.82 338.51C357.82 339.12 353.53 341.92 354.04 342.99C354.94 344.84 367.3 346.88 372.34 348.64C372.61 348.73 372.51 349.12 372.25 349.01C370.93 348.46 365.51 347.54 364.25 347.27C361.71 346.77 353.85 345.78 352.72 343.45C352 341.89 357.63 338.67 358.82 338.21Z" fill="#263238"/>
<path d="M256.28 252L200.14 265.1C200.14 265.1 184 225.67 180 203.53C177.79 191.11 185.11 190.23 194.68 196.4C228.21 218 256.28 252 256.28 252Z" fill="#ED9902"/>
<path d="M242.38 239.17C242.064 239.508 241.674 239.768 241.24 239.93C240.845 240.07 240.42 240.106 240.006 240.035C239.593 239.963 239.205 239.785 238.88 239.52C238.367 239.14 237.752 238.922 237.114 238.894C236.477 238.865 235.845 239.028 235.3 239.36C234.795 239.67 234.389 240.117 234.13 240.65C233.89 241.14 233.62 241.59 233.42 242.09C233.86 241.77 234.22 241.4 234.63 241.09C234.943 240.741 235.329 240.464 235.76 240.28C236.146 240.128 236.565 240.078 236.977 240.134C237.388 240.19 237.778 240.35 238.11 240.6C238.472 240.894 238.896 241.104 239.35 241.214C239.804 241.324 240.276 241.331 240.733 241.235C241.19 241.139 241.62 240.943 241.991 240.66C242.363 240.377 242.666 240.015 242.88 239.6C243.1 239.13 243.39 238.67 243.59 238.17C243.15 238.46 242.77 238.82 242.38 239.17ZM191.3 206.77C190.98 207.104 190.591 207.363 190.16 207.53C189.764 207.667 189.34 207.702 188.927 207.63C188.514 207.558 188.126 207.383 187.8 207.12C187.29 206.735 186.676 206.512 186.038 206.48C185.399 206.448 184.766 206.608 184.22 206.94C183.711 207.258 183.305 207.717 183.05 208.26C182.81 208.73 182.54 209.19 182.34 209.69C182.78 209.36 183.14 208.98 183.55 208.63C183.86 208.282 184.247 208.012 184.68 207.84C185.063 207.69 185.479 207.64 185.887 207.696C186.295 207.752 186.681 207.912 187.01 208.16C187.513 208.55 188.12 208.783 188.754 208.831C189.389 208.879 190.024 208.739 190.58 208.43C191.099 208.13 191.519 207.685 191.79 207.15C192.02 206.68 192.29 206.23 192.5 205.73C192.082 206.055 191.681 206.402 191.3 206.77V206.77ZM204.76 241.62C204.59 241.12 204.46 240.62 204.25 240.11C204.18 240.65 204.18 241.17 204.13 241.7C204.158 242.164 204.082 242.628 203.91 243.06C203.742 243.444 203.478 243.778 203.144 244.03C202.809 244.282 202.415 244.444 202 244.5C201.368 244.575 200.773 244.835 200.288 245.248C199.804 245.661 199.453 246.208 199.28 246.82C199.12 247.398 199.138 248.012 199.33 248.58C199.5 249.08 199.63 249.58 199.83 250.09C199.91 249.56 199.91 249.04 199.96 248.5C199.936 248.034 200.029 247.57 200.23 247.15C200.413 246.778 200.686 246.457 201.025 246.218C201.364 245.978 201.758 245.828 202.17 245.78C202.806 245.694 203.4 245.417 203.873 244.984C204.347 244.552 204.677 243.985 204.82 243.36C204.972 242.787 204.952 242.181 204.76 241.62ZM219 219.76C218.539 219.774 218.08 219.682 217.66 219.49C217.277 219.306 216.948 219.024 216.708 218.673C216.467 218.322 216.323 217.914 216.29 217.49C216.194 216.858 215.913 216.27 215.482 215.798C215.051 215.326 214.49 214.993 213.87 214.84C213.291 214.712 212.688 214.75 212.13 214.95C211.63 215.12 211.13 215.25 210.6 215.45C211.15 215.53 211.67 215.53 212.21 215.56C212.675 215.544 213.138 215.626 213.57 215.8C213.948 215.968 214.278 216.228 214.53 216.556C214.782 216.885 214.947 217.271 215.01 217.68C215.081 218.313 215.34 218.911 215.753 219.396C216.167 219.88 216.716 220.23 217.33 220.4C217.905 220.558 218.515 220.54 219.08 220.35C219.59 220.18 220.08 220.05 220.6 219.83C220.07 219.79 219.55 219.81 219 219.76Z" fill="white"/>
<path d="M200 255.8C208.47 253.08 231.66 246.34 247.31 243.94C247.4 243.94 247.5 244.27 247.41 244.3C234.7 248.3 208.82 254.3 200.15 256.3C200 256.36 199.89 255.86 200 255.8Z" fill="#263238"/>
<path opacity="0.1" d="M248.77 253.77L200.14 265.1C200.14 265.1 184 225.67 180 203.53C178.58 195.59 181.07 192.36 185.56 192.69L248.77 253.77Z" fill="black"/>
<path d="M232.13 351.25H88.35C88.35 351.25 104.29 252.66 150.61 199.92C163.11 185.69 182.9 188.18 193.61 197.81C197.396 201.477 200.884 205.439 204.04 209.66C213.78 222.17 229.69 252.22 231.18 260.35C233.63 273.78 221.74 288.3 221.74 288.3L232.13 351.25Z" fill="#ED9902"/>
<path d="M232.65 259.62C231.32 254.08 228.24 249.02 225.53 244.06C222.67 238.83 219.67 233.69 216.59 228.58L216.26 228.04C215.75 226.41 215.01 224.81 214.39 223.23C213.6 221.23 212.74 219.23 211.96 217.23C211.96 217.214 211.954 217.199 211.942 217.188C211.931 217.176 211.916 217.17 211.9 217.17C211.884 217.17 211.869 217.176 211.858 217.188C211.846 217.199 211.84 217.214 211.84 217.23C212.49 219.34 213.13 221.46 213.9 223.53C214.1 224.06 214.29 224.6 214.49 225.15C213.49 223.45 212.41 221.75 211.33 220.07C209.5 217.21 207.57 214.42 205.74 211.56C205.729 211.552 205.715 211.547 205.701 211.547C205.687 211.546 205.673 211.55 205.661 211.557C205.649 211.565 205.64 211.576 205.634 211.589C205.629 211.602 205.627 211.616 205.63 211.63C208.57 216.63 211.39 221.73 214.32 226.75C217.25 231.77 220.11 236.82 222.85 241.94C224.183 244.48 225.517 247.043 226.85 249.63C228.1 252.058 229.202 254.559 230.15 257.12C231.857 262.106 231.892 267.512 230.25 272.52C228.48 278.18 225.33 283.33 222.33 288.41C222.21 288.61 222.53 288.86 222.68 288.66C228.92 280.37 235.26 270.49 232.65 259.62Z" fill="#263238"/>
<path d="M183.17 340.52C182.864 340.86 182.474 341.116 182.04 341.26C181.645 341.402 181.221 341.439 180.808 341.369C180.394 341.299 180.006 341.124 179.68 340.86C179.31 340.575 178.88 340.376 178.423 340.278C177.965 340.18 177.492 340.186 177.037 340.296C176.583 340.405 176.158 340.615 175.795 340.91C175.432 341.205 175.14 341.577 174.94 342C174.71 342.48 174.44 342.93 174.23 343.44C174.66 343.11 175.04 342.73 175.45 342.38C175.755 342.032 176.139 341.761 176.57 341.59C176.953 341.434 177.369 341.38 177.779 341.433C178.189 341.485 178.579 341.643 178.91 341.89C179.409 342.288 180.015 342.528 180.651 342.579C181.287 342.631 181.923 342.492 182.48 342.18C182.996 341.88 183.414 341.435 183.68 340.9C183.92 340.42 184.19 339.96 184.39 339.47C184 339.79 183.58 340.17 183.17 340.52ZM204.71 294.42C204.403 294.769 204.01 295.031 203.57 295.18C203.175 295.315 202.753 295.348 202.342 295.276C201.932 295.204 201.546 295.03 201.22 294.77C200.705 294.39 200.089 294.171 199.449 294.143C198.81 294.114 198.177 294.277 197.63 294.61C197.133 294.928 196.734 295.378 196.48 295.91C196.24 296.4 195.97 296.84 195.77 297.34C196.19 297.03 196.57 296.65 196.97 296.34C197.288 295.996 197.672 295.721 198.1 295.53C198.485 295.377 198.902 295.326 199.312 295.382C199.722 295.438 200.111 295.599 200.44 295.85C200.941 296.244 201.547 296.48 202.183 296.53C202.818 296.58 203.454 296.441 204.01 296.13C204.527 295.835 204.945 295.393 205.21 294.86C205.45 294.38 205.72 293.92 205.93 293.42C205.48 293.71 205.12 294.07 204.71 294.42V294.42ZM137.21 310.67C136.897 311.012 136.506 311.273 136.07 311.43C135.676 311.57 135.253 311.607 134.841 311.535C134.429 311.463 134.043 311.286 133.72 311.02C133.347 310.738 132.916 310.542 132.457 310.446C131.999 310.351 131.526 310.358 131.071 310.467C130.616 310.576 130.191 310.784 129.826 311.077C129.461 311.37 129.165 311.739 128.96 312.16C128.73 312.65 128.46 313.09 128.25 313.59C128.674 313.278 129.081 312.944 129.47 312.59C129.788 312.251 130.168 311.976 130.59 311.78C130.978 311.63 131.398 311.581 131.811 311.637C132.224 311.693 132.615 311.852 132.95 312.1C133.312 312.396 133.735 312.607 134.189 312.718C134.643 312.829 135.117 312.837 135.574 312.741C136.032 312.645 136.462 312.448 136.833 312.164C137.205 311.88 137.508 311.516 137.72 311.1C137.94 310.62 138.22 310.16 138.43 309.66C138 310 137.61 310.32 137.21 310.67V310.67ZM158.62 251C158.304 251.338 157.914 251.598 157.48 251.76C157.086 251.899 156.663 251.935 156.251 251.863C155.84 251.791 155.453 251.615 155.13 251.35C154.615 250.97 153.999 250.751 153.359 250.723C152.72 250.694 152.087 250.857 151.54 251.19C151.038 251.503 150.632 251.95 150.37 252.48C150.14 252.97 149.87 253.42 149.66 253.92C150.084 253.608 150.491 253.274 150.88 252.92C151.194 252.576 151.575 252.3 152 252.11C152.388 251.957 152.809 251.907 153.222 251.963C153.635 252.019 154.027 252.179 154.36 252.43C154.722 252.724 155.146 252.934 155.6 253.044C156.054 253.154 156.526 253.161 156.983 253.065C157.44 252.969 157.87 252.773 158.241 252.49C158.613 252.207 158.916 251.845 159.13 251.43C159.35 250.96 159.63 250.5 159.84 250C159.4 250.27 159 250.63 158.62 251ZM149.3 208.77C148.983 209.104 148.593 209.361 148.16 209.52C147.767 209.663 147.343 209.701 146.93 209.629C146.518 209.557 146.131 209.378 145.81 209.11C145.183 208.655 144.412 208.441 143.64 208.51C143.3 208.95 142.97 209.4 142.64 209.85C143.026 209.698 143.445 209.648 143.857 209.704C144.268 209.76 144.658 209.92 144.99 210.17C145.49 210.563 146.094 210.799 146.728 210.849C147.361 210.899 147.995 210.76 148.55 210.45C149.067 210.147 149.487 209.703 149.76 209.17C149.99 208.7 150.27 208.24 150.48 207.73C150.07 208.051 149.676 208.391 149.3 208.75V208.77ZM191.3 206.77C190.98 207.104 190.591 207.363 190.16 207.53C189.764 207.667 189.34 207.702 188.927 207.63C188.514 207.559 188.126 207.383 187.8 207.12C187.29 206.735 186.676 206.512 186.038 206.48C185.399 206.448 184.766 206.608 184.22 206.94C183.711 207.258 183.305 207.717 183.05 208.26C182.81 208.73 182.54 209.19 182.34 209.69C182.78 209.36 183.14 208.98 183.55 208.63C183.86 208.283 184.247 208.012 184.68 207.84C185.063 207.69 185.479 207.64 185.887 207.697C186.295 207.753 186.681 207.912 187.01 208.16C187.513 208.55 188.12 208.783 188.754 208.831C189.389 208.879 190.024 208.74 190.58 208.43C191.099 208.13 191.519 207.685 191.79 207.15C192.02 206.68 192.29 206.23 192.5 205.73C192.082 206.055 191.681 206.402 191.3 206.77V206.77ZM148.11 337.53C147.94 337.02 147.81 336.53 147.61 336.01C147.53 336.55 147.53 337.07 147.48 337.61C147.513 338.074 147.438 338.54 147.26 338.97C147.092 339.348 146.832 339.678 146.504 339.93C146.175 340.182 145.789 340.347 145.38 340.41C144.747 340.481 144.149 340.74 143.664 341.153C143.18 341.567 142.83 342.116 142.66 342.73C142.502 343.305 142.52 343.915 142.71 344.48C142.88 344.99 143.01 345.48 143.22 346C143.3 345.46 143.3 344.94 143.34 344.4C143.326 343.939 143.418 343.48 143.61 343.06C143.799 342.68 144.082 342.355 144.432 342.115C144.782 341.875 145.188 341.729 145.61 341.69C146.241 341.593 146.829 341.311 147.301 340.88C147.772 340.45 148.106 339.89 148.26 339.27C148.375 338.687 148.323 338.084 148.11 337.53ZM132.46 231.64C132.28 231.13 132.16 230.64 131.94 230.12C131.86 230.66 131.87 231.18 131.82 231.72C131.858 232.185 131.779 232.653 131.59 233.08C131.423 233.458 131.163 233.788 130.835 234.038C130.506 234.288 130.119 234.45 129.71 234.51C129.078 234.589 128.484 234.852 128 235.267C127.517 235.681 127.165 236.228 126.99 236.84C126.836 237.416 126.856 238.026 127.05 238.59C127.23 239.1 127.35 239.59 127.56 240.11C127.64 239.57 127.64 239.05 127.69 238.51C127.663 238.049 127.752 237.588 127.95 237.17C128.135 236.787 128.417 236.458 128.768 236.216C129.118 235.974 129.526 235.827 129.95 235.79C130.582 235.7 131.173 235.422 131.645 234.992C132.118 234.562 132.45 234.001 132.6 233.38C132.708 232.798 132.66 232.197 132.46 231.64V231.64ZM204.76 241.64C204.59 241.14 204.46 240.64 204.25 240.13C204.18 240.67 204.18 241.19 204.13 241.72C204.158 242.184 204.082 242.648 203.91 243.08C203.739 243.46 203.474 243.79 203.14 244.039C202.806 244.287 202.413 244.446 202 244.5C201.368 244.575 200.773 244.835 200.288 245.248C199.804 245.661 199.453 246.208 199.28 246.82C199.12 247.398 199.138 248.012 199.33 248.58C199.5 249.08 199.63 249.58 199.83 250.09C199.91 249.56 199.91 249.04 199.96 248.5C199.936 248.035 200.029 247.57 200.23 247.15C200.413 246.778 200.686 246.457 201.025 246.218C201.364 245.978 201.758 245.828 202.17 245.78C202.806 245.694 203.4 245.417 203.873 244.984C204.347 244.552 204.677 243.985 204.82 243.36C204.972 242.787 204.952 242.181 204.76 241.62V241.64ZM111.62 290.64C111.44 290.13 111.32 289.64 111.11 289.12C111.03 289.66 111.03 290.18 110.98 290.72C111.017 291.184 110.941 291.651 110.76 292.08C110.593 292.459 110.333 292.789 110.005 293.041C109.676 293.293 109.289 293.458 108.88 293.52C108.11 293.637 107.405 294.015 106.88 294.59C106.64 295.46 106.41 296.33 106.17 297.2C106.187 297.329 106.217 297.457 106.26 297.58C106.44 298.09 106.56 298.58 106.77 299.1C106.85 298.56 106.85 298.04 106.9 297.5C106.87 297.045 106.96 296.59 107.16 296.18C107.342 295.793 107.623 295.462 107.974 295.218C108.325 294.974 108.734 294.826 109.16 294.79C109.794 294.7 110.386 294.421 110.859 293.99C111.332 293.558 111.663 292.993 111.81 292.37C111.919 291.781 111.853 291.172 111.62 290.62V290.64ZM230.93 344C230.474 344.18 230.066 344.463 229.738 344.828C229.41 345.192 229.171 345.628 229.04 346.1C228.89 346.683 228.907 347.296 229.09 347.87C229.26 348.37 229.39 348.87 229.61 349.38C229.69 348.85 229.69 348.31 229.72 347.79C229.704 347.325 229.797 346.863 229.99 346.44C230.236 345.943 230.64 345.541 231.14 345.3L230.93 344ZM161.56 281C161.39 280.49 161.26 280 161.04 279.48C160.96 280.02 160.98 280.56 160.93 281.08C160.962 281.549 160.879 282.019 160.69 282.45C160.525 282.83 160.266 283.162 159.937 283.415C159.608 283.667 159.22 283.83 158.81 283.89C158.18 283.965 157.586 284.224 157.102 284.635C156.618 285.046 156.266 285.59 156.09 286.2C155.935 286.784 155.959 287.401 156.16 287.97C156.33 288.47 156.46 288.97 156.66 289.48C156.74 288.95 156.74 288.41 156.79 287.89C156.764 287.424 156.857 286.96 157.06 286.54C157.238 286.164 157.51 285.84 157.85 285.599C158.189 285.359 158.586 285.211 159 285.17C159.635 285.082 160.227 284.803 160.7 284.371C161.173 283.939 161.505 283.374 161.65 282.75C161.773 282.169 161.742 281.565 161.56 281ZM160.4 192.54C160.419 192.646 160.449 192.75 160.49 192.85C160.66 193.36 160.79 193.85 160.99 194.37C161.07 193.83 161.07 193.31 161.1 192.77C161.095 192.582 161.112 192.394 161.15 192.21L160.4 192.54ZM186.47 270.36C186.008 270.377 185.549 270.284 185.13 270.09C184.748 269.904 184.42 269.622 184.18 269.271C183.94 268.921 183.795 268.514 183.76 268.09C183.698 267.625 183.533 267.18 183.277 266.787C183.02 266.394 182.679 266.063 182.278 265.82C181.877 265.576 181.426 265.425 180.96 265.379C180.493 265.332 180.021 265.391 179.58 265.55C179.08 265.72 178.58 265.85 178.07 266.05C178.6 266.13 179.14 266.13 179.66 266.16C180.125 266.143 180.589 266.224 181.02 266.4C181.404 266.56 181.739 266.817 181.992 267.147C182.244 267.477 182.406 267.868 182.46 268.28C182.538 268.911 182.8 269.504 183.212 269.988C183.625 270.471 184.17 270.823 184.78 271C185.363 271.15 185.976 271.133 186.55 270.95C187.06 270.78 187.55 270.65 188.07 270.43C187.53 270.39 187 270.41 186.47 270.36ZM225.42 270.36C224.958 270.377 224.499 270.285 224.08 270.09C223.697 269.905 223.368 269.623 223.126 269.272C222.884 268.922 222.737 268.514 222.7 268.09C222.64 267.625 222.476 267.18 222.22 266.787C221.965 266.394 221.625 266.064 221.224 265.82C220.824 265.576 220.374 265.425 219.908 265.378C219.441 265.332 218.971 265.39 218.53 265.55C218.03 265.72 217.53 265.85 217.02 266.05C217.55 266.13 218.09 266.13 218.61 266.16C219.075 266.143 219.539 266.224 219.97 266.4C220.354 266.56 220.689 266.817 220.942 267.147C221.194 267.477 221.356 267.868 221.41 268.28C221.45 268.75 221.596 269.205 221.837 269.611C222.078 270.018 222.407 270.364 222.8 270.625C223.193 270.887 223.64 271.056 224.107 271.121C224.575 271.186 225.051 271.145 225.5 271C226.01 270.83 226.5 270.7 227.02 270.48C226.48 270.39 225.94 270.41 225.42 270.36V270.36ZM114.11 332.79C113.648 332.807 113.189 332.714 112.77 332.52C112.386 332.337 112.057 332.055 111.817 331.704C111.576 331.353 111.432 330.944 111.4 330.52C111.338 330.055 111.173 329.61 110.917 329.217C110.66 328.824 110.319 328.493 109.918 328.25C109.517 328.006 109.066 327.855 108.6 327.809C108.133 327.762 107.661 327.821 107.22 327.98C106.72 328.15 106.22 328.28 105.71 328.48C106.24 328.56 106.78 328.56 107.3 328.59C107.765 328.573 108.229 328.654 108.66 328.83C109.043 328.993 109.378 329.252 109.634 329.581C109.889 329.91 110.056 330.298 110.12 330.71C110.163 331.176 110.31 331.626 110.551 332.027C110.792 332.428 111.12 332.77 111.511 333.027C111.902 333.283 112.346 333.448 112.81 333.509C113.274 333.571 113.746 333.526 114.19 333.38C114.7 333.21 115.19 333.08 115.71 332.86C115.17 332.82 114.63 332.82 114.11 332.79ZM172.11 314.57C171.649 314.584 171.19 314.492 170.77 314.3C170.388 314.114 170.06 313.832 169.82 313.481C169.58 313.131 169.435 312.724 169.4 312.3C169.306 311.667 169.025 311.076 168.594 310.602C168.164 310.128 167.602 309.794 166.98 309.64C166.393 309.521 165.785 309.563 165.22 309.76C164.707 309.895 164.202 310.062 163.71 310.26C164.25 310.34 164.78 310.34 165.3 310.37C165.772 310.343 166.245 310.425 166.68 310.61C167.059 310.777 167.389 311.037 167.641 311.365C167.893 311.694 168.058 312.081 168.12 312.49C168.193 313.122 168.453 313.719 168.866 314.203C169.279 314.687 169.827 315.038 170.44 315.21C171.016 315.36 171.623 315.342 172.19 315.16C172.7 314.99 173.19 314.86 173.71 314.64C173.19 314.6 172.65 314.6 172.13 314.57H172.11ZM132.2 276.89C131.738 276.914 131.277 276.821 130.86 276.62C130.485 276.441 130.162 276.168 129.922 275.829C129.682 275.489 129.533 275.094 129.49 274.68C129.398 274.046 129.119 273.453 128.687 272.979C128.256 272.505 127.693 272.171 127.07 272.02C126.493 271.884 125.888 271.919 125.33 272.12C124.83 272.29 124.33 272.42 123.81 272.62C124.35 272.72 124.87 272.7 125.41 272.75C125.876 272.715 126.344 272.797 126.77 272.99C127.146 273.155 127.475 273.412 127.727 273.737C127.978 274.062 128.144 274.444 128.21 274.85C128.282 275.485 128.541 276.084 128.954 276.572C129.367 277.06 129.916 277.414 130.53 277.59C131.108 277.734 131.715 277.709 132.28 277.52C132.79 277.35 133.28 277.22 133.8 277.02C133.26 276.94 132.74 276.94 132.2 276.89ZM209.2 327.89C208.74 327.908 208.283 327.812 207.87 327.61C207.491 327.434 207.164 327.162 206.92 326.822C206.677 326.483 206.525 326.086 206.48 325.67C206.395 325.033 206.118 324.437 205.685 323.962C205.253 323.487 204.686 323.155 204.06 323.01C203.485 322.885 202.887 322.919 202.33 323.11C201.82 323.28 201.33 323.41 200.81 323.63C201.35 323.71 201.87 323.71 202.4 323.74C202.866 323.713 203.331 323.795 203.76 323.98C204.143 324.14 204.478 324.398 204.73 324.728C204.983 325.058 205.145 325.448 205.2 325.86C205.282 326.488 205.544 327.079 205.956 327.561C206.368 328.042 206.912 328.393 207.52 328.57C208.099 328.727 208.713 328.706 209.28 328.51C209.78 328.35 210.28 328.21 210.79 328C210.29 328 209.77 328 209.23 327.92L209.2 327.89ZM177.61 233.81C177.145 233.826 176.683 233.733 176.26 233.54C175.877 233.355 175.549 233.073 175.309 232.722C175.069 232.371 174.924 231.964 174.89 231.54C174.776 230.932 174.491 230.37 174.067 229.92C173.644 229.469 173.1 229.15 172.5 229C171.921 228.873 171.318 228.911 170.76 229.11C170.26 229.28 169.76 229.41 169.23 229.61C169.78 229.69 170.31 229.69 170.84 229.72C171.305 229.704 171.769 229.785 172.2 229.96C172.579 230.126 172.91 230.386 173.162 230.714C173.414 231.043 173.578 231.43 173.64 231.84C173.711 232.473 173.97 233.071 174.383 233.556C174.797 234.04 175.346 234.39 175.96 234.56C176.538 234.72 177.152 234.702 177.72 234.51C178.22 234.34 178.72 234.21 179.23 233.99C178.69 233.87 178.17 233.89 177.64 233.84L177.61 233.81Z" fill="white"/>
<path d="M178.44 284.72C184.604 284.157 190.801 284.053 196.98 284.41C200.05 284.63 203.08 284.99 206.13 285.41C207.65 285.62 209.13 285.78 210.69 285.94C212.281 286.13 213.889 286.13 215.48 285.94C215.509 285.94 215.537 285.952 215.558 285.972C215.578 285.993 215.59 286.021 215.59 286.05C215.59 286.079 215.578 286.107 215.558 286.128C215.537 286.148 215.509 286.16 215.48 286.16C214.004 286.499 212.507 286.743 211 286.89C209.535 286.985 208.065 286.985 206.6 286.89C203.48 286.69 200.38 286.36 197.27 286.13C190.99 285.68 184.71 285.23 178.42 285.24C178.17 285.24 178.15 284.74 178.44 284.72Z" fill="#263238"/>
<path d="M164.43 292.82C169.331 291.388 174.309 290.233 179.34 289.36C181.86 288.93 184.34 288.66 186.93 288.44C188.14 288.34 189.36 288.26 190.58 288.2C191.8 288.14 193.27 288.2 194.58 288.14C194.72 288.14 194.76 288.35 194.58 288.36C193.32 288.49 192.08 288.82 190.83 289.01L187.06 289.6C184.54 289.99 182.06 290.41 179.51 290.78C174.51 291.52 169.51 292.31 164.44 293.23C164.23 293.28 164.18 292.89 164.43 292.82Z" fill="#263238"/>
<path d="M144.24 202.72C101.43 240.72 49 323 57.22 341C66.41 361 124.42 306.87 122.87 303.91C121.56 301.39 145.49 251.09 162.87 214.3C180.25 177.51 154.82 193.33 144.24 202.72Z" fill="#FFC4C0"/>
<path d="M91.88 248.19L147.57 263.07C147.57 263.07 165.01 224.19 169.66 202.18C172.27 189.84 164.98 188.72 155.22 194.58C121 215.08 91.88 248.19 91.88 248.19Z" fill="#ED9902"/>
<path d="M102.36 247.19C101.898 247.207 101.439 247.115 101.02 246.92C100.637 246.735 100.308 246.453 100.066 246.102C99.8239 245.752 99.6772 245.344 99.64 244.92C99.5476 244.305 99.2796 243.729 98.868 243.263C98.4565 242.796 97.9189 242.458 97.32 242.29L96.54 243.1C96.6741 243.13 96.8048 243.173 96.93 243.23C97.3097 243.394 97.6407 243.654 97.8911 243.983C98.1416 244.312 98.303 244.7 98.36 245.11C98.4334 245.743 98.6946 246.339 99.1098 246.822C99.5251 247.305 100.075 247.653 100.69 247.82C101.26 247.994 101.87 247.994 102.44 247.82C102.95 247.64 103.44 247.52 103.96 247.3C103.42 247.22 102.9 247.23 102.36 247.19ZM160.36 192.07C160.375 192.336 160.429 192.599 160.52 192.85C160.69 193.36 160.82 193.85 161.02 194.37C161.1 193.83 161.1 193.31 161.13 192.77C161.118 192.43 161.169 192.091 161.28 191.77L160.36 192.07ZM132.49 231.64C132.31 231.13 132.19 230.64 131.97 230.12C131.89 230.66 131.9 231.18 131.85 231.72C131.888 232.185 131.809 232.653 131.62 233.08C131.453 233.458 131.193 233.788 130.865 234.038C130.536 234.288 130.149 234.45 129.74 234.51C129.108 234.589 128.514 234.852 128.03 235.267C127.547 235.681 127.195 236.228 127.02 236.84C126.866 237.416 126.886 238.026 127.08 238.59C127.26 239.1 127.38 239.59 127.59 240.11C127.67 239.57 127.67 239.05 127.72 238.51C127.693 238.049 127.782 237.588 127.98 237.17C128.165 236.787 128.447 236.458 128.798 236.216C129.148 235.974 129.556 235.827 129.98 235.79C130.612 235.7 131.203 235.422 131.675 234.992C132.148 234.562 132.48 234.001 132.63 233.38C132.728 232.795 132.67 232.195 132.46 231.64H132.49ZM149.33 208.75C149.013 209.084 148.623 209.341 148.19 209.5C147.797 209.643 147.373 209.681 146.96 209.609C146.548 209.537 146.161 209.358 145.84 209.09C145.323 208.714 144.707 208.499 144.069 208.471C143.431 208.442 142.798 208.602 142.25 208.93C141.746 209.246 141.341 209.696 141.08 210.23C140.84 210.72 140.58 211.16 140.37 211.67C140.81 211.35 141.18 210.97 141.59 210.67C141.899 210.32 142.281 210.044 142.71 209.86C143.096 209.708 143.515 209.658 143.927 209.714C144.338 209.77 144.728 209.93 145.06 210.18C145.56 210.573 146.164 210.809 146.798 210.859C147.431 210.909 148.065 210.77 148.62 210.46C149.137 210.157 149.557 209.713 149.83 209.18C150.06 208.71 150.34 208.25 150.55 207.74C150.117 208.055 149.699 208.393 149.3 208.75H149.33ZM151.57 251.17C151.068 251.483 150.662 251.93 150.4 252.46C150.17 252.95 149.9 253.4 149.69 253.9C150.114 253.588 150.521 253.254 150.91 252.9C151.224 252.556 151.605 252.28 152.03 252.09C152.143 252.046 152.261 252.013 152.38 251.99C152.56 251.59 152.73 251.18 152.89 250.76C152.414 250.791 151.952 250.931 151.54 251.17H151.57Z" fill="white"/>
<path d="M148.27 253.23C139.89 250.23 116.93 242.76 101.38 239.85C101.28 239.85 101.17 240.18 101.26 240.21C113.84 244.58 139.51 251.49 148.11 253.75C148.27 253.79 148.43 253.29 148.27 253.23Z" fill="#263238"/>
<path d="M140.78 261.26C143.12 261.57 145.43 261.99 147.73 262.45L146.98 262.81L148.4 259.17L149.87 255.55C150.87 253.15 151.87 250.76 152.96 248.38C154.05 246 155.09 243.64 156.18 241.28C157.27 238.92 158.4 236.58 159.47 234.19C159.006 236.772 158.337 239.314 157.47 241.79C156.64 244.27 155.72 246.72 154.74 249.14C153.76 251.56 152.74 253.95 151.63 256.32L149.94 259.85C149.35 261.01 148.05 263.52 148.05 263.52C148.05 263.52 143 262.16 140.78 261.26Z" fill="#263238"/>
<path d="M159.47 241.17C158.802 242.76 158.002 244.292 157.08 245.75C156.192 247.224 155.189 248.625 154.08 249.94C155.452 246.769 157.278 243.815 159.5 241.17H159.47Z" fill="#263238"/>
<path d="M57.22 341C65.39 354.51 89.8 358.6 150.3 374.67C158.67 376.89 190.3 322.03 181.44 319.2C170.34 315.63 126.44 304.2 123.15 303.75C95.19 300.07 51.67 331.8 57.22 341Z" fill="#FFC4C0"/>
<path d="M153.44 311.44C153.44 311.44 179.32 309.02 193.31 311.96C212.05 315.9 226.6 327 232.42 332C244.56 342.49 266.68 376.25 258.07 384.31C250.27 391.61 229.41 355.97 229.41 355.97C229.41 355.97 256.68 388.8 245.68 395.87C234.68 402.94 212.81 360.17 212.81 360.17C212.81 360.17 240.07 394.54 227.57 400.03C218.13 404.18 196.14 366.57 196.14 366.57C196.14 366.57 219.37 396.27 209.84 400.95C199.31 406.13 176.84 372.69 176.84 372.69C150.61 380.52 134.92 373.52 124.35 367.22C121.79 365.72 153.44 311.44 153.44 311.44Z" fill="#FFC4C0"/>
<path d="M220.71 344C224.05 347.74 227.46 351.5 230.46 355.53C233.46 359.56 236.32 363.68 238.93 367.97C245.33 378.48 247.69 386.07 247.5 385.62C242.83 374.91 232.32 360.34 229.32 356.31C226.32 352.28 223.54 348.12 220.55 344.1C220.47 344 220.63 344 220.71 344Z" fill="#263238"/>
<path d="M206 354.6C210.06 359.6 214.27 364.34 218.11 369.48C221.95 374.62 225.11 379.79 228.58 385.15C228.85 385.57 228.58 385.57 228.25 385.15C224.58 379.93 220.78 375.38 217.05 370.2C213.32 365.02 209.78 359.69 205.87 354.67C205.79 354.61 205.91 354.52 206 354.6Z" fill="#263238"/>
<path d="M191.7 361.39C198.3 368.66 203.54 377.13 208.49 385.56C208.74 385.98 208.34 385.95 208.06 385.56C202.63 377.42 198.43 371 191.45 361.65C191.34 361.47 191.56 361.24 191.7 361.39Z" fill="#263238"/>
<path d="M95.48 308.35C99.78 306.1 111.84 300.99 123.07 303.62C123.097 303.62 123.122 303.631 123.141 303.649C123.159 303.668 123.17 303.693 123.17 303.72C123.17 303.747 123.159 303.772 123.141 303.791C123.122 303.809 123.097 303.82 123.07 303.82C113.7 302.99 99.92 306.69 95.57 308.52C95.44 308.57 95.37 308.4 95.48 308.35Z" fill="#263238"/>
<path d="M174.19 187.59C159.9 187.59 160.81 203.72 164.62 212.75C167.9 220.54 178.97 230.57 184.47 229.98C189.97 229.39 187.55 216.18 187.55 216.18C187.55 216.18 195.55 226.56 199.05 225.4C202.55 224.24 200.59 212.73 194.65 203.05C188.71 193.37 182.11 187.58 174.19 187.59Z" fill="white"/>
<path d="M166.27 195C166.56 197.43 176.16 214.09 187.05 214.8C190.6 215.02 192.69 195.7 192.69 195.7L193.17 194.31L199.87 174.84L178.09 157.16L174.93 154.78C174.93 154.78 173.44 160.23 171.67 167.04C171.58 167.35 171.5 167.67 171.41 168.04C171.32 168.41 171.19 168.79 171.1 169.15C170.83 170.15 170.55 171.15 170.29 172.23C170.09 173.02 169.89 173.79 169.71 174.62C169.53 175.45 169.33 176.27 169.13 177.11C167.33 185.33 166.16 194 166.27 195Z" fill="#FFC4C0"/>
<path d="M171.67 167C173.058 172.834 175.701 178.296 179.414 183.005C183.127 187.715 187.821 191.559 193.17 194.27L199.87 174.8L178.09 157.12L174.93 154.74C174.93 154.74 173.44 160.23 171.67 167Z" fill="#263238"/>
<path d="M234.08 155.34C228.51 191.05 206.49 191.75 198.79 190.54C191.79 189.44 168.14 184.81 169.99 148.71C171.84 112.61 190.21 103.91 206.33 105.58C222.45 107.25 239.65 119.62 234.08 155.34Z" fill="#FFC4C0"/>
<path d="M228.46 145.93C227.683 145.638 226.922 145.304 226.18 144.93C225.325 144.688 224.573 144.172 224.04 143.46C223.918 143.204 223.883 142.914 223.941 142.636C223.998 142.358 224.146 142.106 224.36 141.92C224.842 141.619 225.395 141.452 225.963 141.436C226.531 141.42 227.092 141.556 227.59 141.83C228.685 142.231 229.591 143.026 230.13 144.06C230.24 144.302 230.277 144.571 230.237 144.833C230.197 145.096 230.082 145.341 229.905 145.539C229.728 145.738 229.497 145.88 229.24 145.949C228.984 146.019 228.713 146.012 228.46 145.93Z" fill="#263238"/>
<path d="M206 141.42C206.85 141.49 207.65 141.42 208.5 141.42C209.378 141.543 210.271 141.37 211.04 140.93C211.254 140.744 211.402 140.492 211.459 140.214C211.517 139.936 211.482 139.646 211.36 139.39C211.04 138.922 210.6 138.548 210.087 138.307C209.573 138.066 209.005 137.967 208.44 138.02C207.28 137.945 206.133 138.301 205.22 139.02C205.021 139.198 204.878 139.431 204.809 139.689C204.739 139.947 204.746 140.22 204.829 140.474C204.912 140.728 205.066 140.953 205.274 141.121C205.482 141.289 205.734 141.393 206 141.42V141.42Z" fill="#263238"/>
<path d="M208.84 151.33C208.84 151.23 208.63 151.41 208.61 151.51C208.24 153.94 207.41 156.67 205.07 157.07C205 157.07 204.98 157.2 205.07 157.21C207.81 157.32 208.88 153.69 208.84 151.33Z" fill="#263238"/>
<path d="M207.14 148.4C203.31 147.4 201.56 155.14 205.14 156.08C208.72 157.02 210.36 149.25 207.14 148.4Z" fill="#263238"/>
<path d="M205.53 148.47C204.75 148.75 203.92 149.38 203.08 149.28C202.24 149.18 201.59 148.18 201.15 147.28C201.1 147.18 201.02 147.23 200.99 147.28C200.64 148.77 200.86 150.42 202.41 151C203.96 151.58 205.15 150.45 205.86 149C206 148.82 205.84 148.35 205.53 148.47Z" fill="#263238"/>
<path d="M222.57 153.34C222.57 153.25 222.73 153.5 222.71 153.59C222.07 155.97 221.71 158.8 223.71 160.11C223.77 160.11 223.71 160.27 223.71 160.24C221.12 159.25 221.59 155.49 222.57 153.34Z" fill="#263238"/>
<path d="M225.3 151.34C229.22 151.94 227.72 159.74 224.08 159.18C220.44 158.62 222 150.83 225.3 151.34Z" fill="#263238"/>
<path d="M226.82 152.16C227.36 152.69 227.82 153.56 228.55 153.75C229.28 153.94 230.19 153.25 230.89 152.55C230.96 152.47 231.01 152.55 231 152.65C230.75 154.15 230 155.65 228.47 155.65C226.94 155.65 226.4 154.2 226.33 152.65C226.32 152.33 226.61 152 226.82 152.16Z" fill="#263238"/>
<path d="M203.45 170.3C203.87 171.01 204.23 171.93 205.07 172.24C205.96 172.463 206.886 172.497 207.79 172.34C207.808 172.339 207.825 172.344 207.84 172.353C207.855 172.362 207.867 172.376 207.875 172.392C207.882 172.408 207.885 172.426 207.882 172.443C207.879 172.461 207.872 172.477 207.86 172.49C207.392 172.864 206.832 173.105 206.239 173.186C205.645 173.267 205.041 173.185 204.49 172.95C204.04 172.692 203.677 172.306 203.447 171.842C203.218 171.377 203.131 170.854 203.2 170.34C203.2 170.2 203.39 170.2 203.45 170.3Z" fill="#263238"/>
<path d="M216.55 163.58C216.55 163.58 216.28 167.3 215.92 169C214.241 169.044 212.58 168.635 211.113 167.817C209.646 166.999 208.426 165.802 207.58 164.35C207.48 164.17 207.75 164.03 207.89 164.17C209.742 166.119 212.178 167.414 214.83 167.86C215.05 167.41 215.08 161.48 215.35 161.51C216.649 161.914 217.889 162.485 219.04 163.21C219.82 155.48 219.36 147.69 220.26 140.01C220.271 139.956 220.301 139.907 220.344 139.873C220.386 139.838 220.44 139.819 220.495 139.819C220.55 139.819 220.604 139.838 220.646 139.873C220.689 139.907 220.719 139.956 220.73 140.01C221.79 148.14 221.08 157.01 220.47 165.01C220.41 166 217.17 164 216.55 163.58Z" fill="#263238"/>
<path d="M169.84 148C169.84 148 162.45 133.49 169.68 117.72C176.91 101.95 200.28 96.11 219.19 106.91C219.19 106.91 190.29 101.83 180.43 114.75C170.57 127.67 169.84 148 169.84 148Z" fill="#ED9902"/>
<path d="M174.94 153.06C181.45 154.58 184.7 139.65 184.7 139.65C184.7 139.65 213.29 137.8 218.04 115.17C218.04 115.17 221.35 130.25 235.38 138.37C235.38 138.37 237 113.19 217.62 106.26C217.62 106.26 193.88 94.73 177.98 112.87C162.08 131.01 170.57 152.05 174.94 153.06Z" fill="#263238"/>
<path d="M218.32 113.49C218.29 117.053 217.499 120.568 216 123.8C214.539 127.1 212.407 130.059 209.74 132.49C209.08 133.1 208.382 133.668 207.65 134.19L206.58 135.01C206.2 135.26 205.81 135.48 205.42 135.7C204.64 136.14 203.88 136.62 203.08 137.03C202.28 137.44 201.43 137.72 200.6 138.03C200.19 138.19 199.78 138.37 199.36 138.51L198.07 138.86L195.51 139.56C193.76 139.85 192 140.06 190.26 140.24C191.95 139.7 193.65 139.35 195.26 138.8L197.71 137.91L198.92 137.47C199.32 137.29 199.7 137.08 200.08 136.9C200.85 136.51 201.62 136.12 202.4 135.76C203.18 135.4 203.85 134.85 204.58 134.41L205.66 133.72L206.66 132.93C207.361 132.426 208.029 131.878 208.66 131.29C211.186 129.003 213.297 126.296 214.9 123.29C215.727 121.775 216.423 120.193 216.98 118.56C217.576 116.913 218.025 115.216 218.32 113.49V113.49Z" fill="#263238"/>
<path d="M175.61 151.19C175.61 151.19 170.61 138.35 165.01 139.86C159.41 141.37 161.21 158.66 166.52 162.27C167.167 162.78 167.911 163.154 168.706 163.369C169.501 163.584 170.332 163.635 171.148 163.52C171.964 163.405 172.748 163.126 173.453 162.7C174.158 162.274 174.769 161.709 175.25 161.04L175.61 151.19Z" fill="#FFC4C0"/>
<path d="M165.66 144.8C165.57 144.8 165.52 144.9 165.59 144.95C169.27 147.62 170.49 151.95 171.04 156.25C170.19 154.43 168.74 153.19 166.35 154.14C166.23 154.19 166.29 154.39 166.41 154.39C167.185 154.337 167.957 154.526 168.62 154.931C169.282 155.336 169.803 155.937 170.11 156.65C170.617 157.85 170.996 159.1 171.24 160.38C171.34 160.79 172.05 160.76 172.01 160.3C172.015 160.267 172.015 160.233 172.01 160.2C173.39 155 171.13 146.71 165.66 144.8Z" fill="#263238"/>
<path d="M170.31 161.55C170.219 161.824 170.048 162.064 169.82 162.241C169.593 162.418 169.317 162.523 169.03 162.544C168.742 162.564 168.455 162.499 168.204 162.357C167.953 162.214 167.75 162.001 167.621 161.743C167.491 161.485 167.441 161.195 167.476 160.909C167.511 160.623 167.631 160.353 167.819 160.135C168.007 159.916 168.256 159.758 168.534 159.681C168.811 159.604 169.106 159.61 169.38 159.7C169.748 159.823 170.052 160.087 170.226 160.433C170.4 160.78 170.43 161.181 170.31 161.55V161.55Z" fill="white"/>
<path d="M167.63 158.15C167.521 158.386 167.329 158.574 167.09 158.677C166.851 158.781 166.583 158.793 166.336 158.711C166.089 158.63 165.88 158.46 165.75 158.235C165.62 158.01 165.577 157.745 165.63 157.49C165.66 157.344 165.721 157.205 165.809 157.084C165.896 156.963 166.008 156.862 166.138 156.787C166.267 156.712 166.411 156.666 166.559 156.65C166.708 156.635 166.858 156.651 167 156.698C167.142 156.745 167.272 156.821 167.383 156.922C167.493 157.023 167.581 157.146 167.64 157.283C167.7 157.42 167.73 157.568 167.728 157.718C167.726 157.867 167.693 158.014 167.63 158.15V158.15Z" fill="white"/>
<path d="M120.36 344.7L114.96 412.58H77.61L72.22 344.7H120.36Z" fill="#ED9902"/>
<path d="M123.57 338.57H68.68V348.47H123.57V338.57Z" fill="#455A64"/>
<path d="M119.81 338.57H72.44L75.21 327.46H117.04L119.81 338.57Z" fill="#37474F"/>
<path d="M109.25 379.24C109.25 388.05 103.45 395.19 96.25 395.19C89.05 395.19 83.25 388.05 83.25 379.24C83.25 370.43 89.06 363.24 96.25 363.24C103.44 363.24 109.25 370.43 109.25 379.24Z" fill="white"/>
</svg>
