<svg width="500" height="500" viewBox="0 0 500 500" fill="none" xmlns="http://www.w3.org/2000/svg">
<path d="M44.36 407.76L95.77 407.51L147.18 407.43L250 407.26L352.82 407.43L404.23 407.51L455.64 407.76L404.23 408L352.82 408.09L250 408.26L147.18 408.09L95.77 408L44.36 407.76Z" fill="#263238"/>
<path opacity="0.5" d="M345.57 150.9C345.57 150.9 358.57 139.08 354.13 130.41C347.88 118.32 321.79 127.65 316.3 106.78C312.16 91 325.36 78.25 315.38 66C308.68 57.73 279.08 60 279.08 60C298.15 45.11 325.86 39 342.44 52.8C357.34 65.16 350.61 83.99 357.06 93.37C366.21 106.67 387.2 107.11 386.83 124.63C386.4 144.93 359.99 149.84 358.17 152.41L345.57 150.9Z" fill="#ED9902"/>
<path d="M388.51 129.14L384.74 129.84L383.89 133.82L383.05 129.84L379.27 129.14L383.03 128.22L383.89 124.45L384.75 128.22L388.51 129.14Z" fill="white"/>
<path d="M342.7 103.53L338.92 104.23L338.08 108.21L337.24 104.23L333.46 103.53L337.22 102.61L338.08 98.85L338.94 102.61L342.7 103.53Z" fill="white"/>
<path d="M351.39 91.52L349.28 91.91L348.8 94.14L348.33 91.91L346.22 91.52L348.32 91L348.8 88.9L349.29 91L351.39 91.52Z" fill="white"/>
<path d="M321.52 81.36L319.41 81.75L318.94 83.97L318.46 81.75L316.35 81.36L318.45 80.84L318.94 78.74L319.42 80.84L321.52 81.36Z" fill="white"/>
<path d="M365.59 143.17L363.48 143.56L363 145.79L362.53 143.56L360.42 143.17L362.52 142.66L363 140.55L363.49 142.66L365.59 143.17Z" fill="white"/>
<path d="M337.44 47.92L335.33 48.31L334.85 50.54L334.38 48.31L332.27 47.92L334.37 47.41L334.85 45.31L335.33 47.41L337.44 47.92Z" fill="white"/>
<path d="M375.36 120.14C375.21 120.159 375.073 120.232 374.973 120.345C374.874 120.459 374.819 120.604 374.819 120.755C374.819 120.906 374.874 121.051 374.973 121.165C375.073 121.278 375.21 121.351 375.36 121.37C375.51 121.351 375.647 121.278 375.747 121.165C375.846 121.051 375.901 120.906 375.901 120.755C375.901 120.604 375.846 120.459 375.747 120.345C375.647 120.232 375.51 120.159 375.36 120.14V120.14Z" fill="white"/>
<path d="M304.25 47.31C304.1 47.3291 303.963 47.4021 303.863 47.5153C303.764 47.6285 303.709 47.7742 303.709 47.925C303.709 48.0758 303.764 48.2215 303.863 48.3347C303.963 48.4479 304.1 48.5209 304.25 48.54C304.4 48.5209 304.537 48.4479 304.637 48.3347C304.736 48.2215 304.791 48.0758 304.791 47.925C304.791 47.7742 304.736 47.6285 304.637 47.5153C304.537 47.4021 304.4 47.3291 304.25 47.31Z" fill="white"/>
<path d="M323.23 66.23C323.068 66.23 322.913 66.2943 322.799 66.4087C322.684 66.5231 322.62 66.6782 322.62 66.84C322.62 67.0018 322.684 67.1569 322.799 67.2713C322.913 67.3857 323.068 67.45 323.23 67.45C323.392 67.45 323.547 67.3857 323.661 67.2713C323.776 67.1569 323.84 67.0018 323.84 66.84C323.84 66.6782 323.776 66.5231 323.661 66.4087C323.547 66.2943 323.392 66.23 323.23 66.23V66.23Z" fill="white"/>
<path d="M292.75 55C292.636 55 292.527 55.0453 292.446 55.1259C292.365 55.2066 292.32 55.316 292.32 55.43C292.32 55.544 292.365 55.6534 292.446 55.7341C292.527 55.8147 292.636 55.86 292.75 55.86C292.864 55.86 292.973 55.8147 293.054 55.7341C293.135 55.6534 293.18 55.544 293.18 55.43C293.18 55.316 293.135 55.2066 293.054 55.1259C292.973 55.0453 292.864 55 292.75 55V55Z" fill="white"/>
<path d="M351.5 116.68C351.396 116.696 351.301 116.748 351.232 116.828C351.164 116.908 351.126 117.01 351.126 117.115C351.126 117.22 351.164 117.322 351.232 117.402C351.301 117.482 351.396 117.534 351.5 117.55C351.604 117.534 351.699 117.482 351.768 117.402C351.836 117.322 351.874 117.22 351.874 117.115C351.874 117.01 351.836 116.908 351.768 116.828C351.699 116.748 351.604 116.696 351.5 116.68V116.68Z" fill="white"/>
<path d="M318.12 103.1C318.006 103.1 317.897 103.145 317.816 103.226C317.735 103.307 317.69 103.416 317.69 103.53C317.69 103.644 317.735 103.753 317.816 103.834C317.897 103.915 318.006 103.96 318.12 103.96C318.234 103.96 318.343 103.915 318.424 103.834C318.505 103.753 318.55 103.644 318.55 103.53C318.55 103.416 318.505 103.307 318.424 103.226C318.343 103.145 318.234 103.1 318.12 103.1V103.1Z" fill="white"/>
<path d="M377.65 110.87C377.357 110.897 377.085 111.033 376.887 111.25C376.688 111.467 376.579 111.751 376.579 112.045C376.579 112.339 376.688 112.623 376.887 112.84C377.085 113.057 377.357 113.193 377.65 113.22C377.943 113.193 378.215 113.057 378.413 112.84C378.612 112.623 378.721 112.339 378.721 112.045C378.721 111.751 378.612 111.467 378.413 111.25C378.215 111.033 377.943 110.897 377.65 110.87V110.87Z" fill="white"/>
<path d="M329.52 109.7C329.227 109.727 328.955 109.863 328.757 110.08C328.558 110.297 328.449 110.581 328.449 110.875C328.449 111.169 328.558 111.453 328.757 111.67C328.955 111.887 329.227 112.023 329.52 112.05C329.813 112.023 330.085 111.887 330.283 111.67C330.482 111.453 330.591 111.169 330.591 110.875C330.591 110.581 330.482 110.297 330.283 110.08C330.085 109.863 329.813 109.727 329.52 109.7V109.7Z" fill="white"/>
<path d="M191.34 274.2C196.419 277.403 201.831 280.045 207.48 282.08C198.38 269.74 198.48 240.83 199.69 244.89C205.52 264.31 220.42 285.16 225.79 285.95C225.79 285.95 225.85 285.95 225.88 285.95C240.25 286.88 253.08 282.82 263.71 276.95C263.718 276.931 263.718 276.909 263.71 276.89C252 263 251.24 233.63 252.06 235.38C260.97 254.11 278.19 264.45 281.06 264.28C291.42 254.66 296.73 245.28 295.16 244.47C283.73 238.33 273.52 221.55 264.16 203.73C254.94 186.17 248.79 159.61 236.16 144.15C224.65 130 202.77 128.31 190.77 136.43C159.39 157.73 184.24 269.78 191.34 274.2Z" fill="#263238"/>
<path d="M193 135.1C190.33 136.458 187.968 138.351 186.06 140.66C184.175 142.861 182.501 145.235 181.06 147.75C178.381 152.722 176.283 157.987 174.81 163.44C171.78 174.2 172.1 195 172.31 206C172.72 217.012 174.19 227.96 176.7 238.69C177.28 241.38 178.05 244.03 178.7 246.69L181 254.64L183.63 262.49L186.53 270.26L184.17 262.35L182 254.35L180 246.35C179.43 243.67 178.76 241.02 178.27 238.35C176.021 227.662 174.713 216.797 174.36 205.88C173.96 195 173.7 174.38 176.36 163.69C177.652 158.299 179.544 153.07 182 148.1C183.28 145.572 184.796 143.171 186.53 140.93C187.433 139.798 188.415 138.732 189.47 137.74C190.519 136.701 191.707 135.812 193 135.1V135.1Z" fill="#263238"/>
<path d="M296.39 241.42C292.864 237.933 289.526 234.262 286.39 230.42C283.22 226.65 280.22 222.78 277.44 218.78C274.66 214.78 272.01 210.72 269.66 206.52C267.31 202.32 265.12 198 262.84 193.74C258.17 185.25 252.36 167.08 247.13 158.83C244.49 154.72 241.76 150.65 238.73 146.75C237.189 144.793 235.54 142.923 233.79 141.15C232.057 139.259 229.953 137.744 227.61 136.7C229.817 137.907 231.773 139.526 233.37 141.47C234.985 143.31 236.491 145.243 237.88 147.26C240.71 151.26 243.27 155.35 245.72 159.52C250.64 167.87 256.45 186 260.96 194.52C263.31 198.76 265.54 203.03 267.96 207.26C270.41 211.514 273.121 215.612 276.08 219.53C282.036 227.542 288.846 234.881 296.39 241.42V241.42Z" fill="#263238"/>
<path d="M214.41 239.42C233.84 257.94 269.9 285.66 284.86 289.97C301.49 294.76 334.57 254.48 356.31 229.85C360.63 224.95 324.7 189.02 320.31 194.48C309 208.76 286.22 241 282.12 241.17C278.76 241.34 246.65 229.77 228.6 223.03C199.87 212.31 200.74 226.38 214.41 239.42Z" fill="#FFC4C0"/>
<path d="M311.64 203.45L347.49 246.2C347.49 246.2 306.66 291.88 290.2 292.07C273.74 292.26 228.84 255.72 214.46 240.5C200.08 225.28 201.87 214.08 223.68 221.03C245.49 227.98 279.27 239.38 282.3 238.67C285.33 237.96 311.64 203.45 311.64 203.45Z" fill="#EBEBEB"/>
<path d="M335 255.82C322.89 236.69 307.26 218.43 304.76 215.05C304.64 214.89 304.4 215.05 304.53 215.25C307.15 218.44 322.75 241.25 334.74 256.05C334.92 256.22 335.16 256 335 255.82Z" fill="#263238"/>
<path d="M304.57 286.05C299.16 289.65 294.12 292.05 290.2 292.05C273.74 292.25 228.83 255.7 214.46 240.49C208.31 233.97 205.12 228.2 205.19 224.25C229 239.15 284.49 273.61 304.57 286.05Z" fill="#C7C7C7"/>
<path d="M344.23 243.63L312.23 205.03C312.69 203.92 315.23 201.29 317.47 197.67C317.47 197.67 322.42 184.78 322.47 172.21C322.47 161.66 321.35 145.98 327.02 145.79C335.3 145.49 339.14 165.13 340.66 176.54C345.66 172.78 350.32 170.01 353.66 169.39C364.66 167.33 380.05 215.16 372.66 223.77C365.45 232.07 350.4 242.89 344.23 243.63Z" fill="#FFC4C0"/>
<g opacity="0.7">
<path d="M376.75 248.17C375.977 254.772 373.374 261.026 369.234 266.226C365.093 271.426 359.582 275.364 353.321 277.597C347.06 279.829 340.3 280.266 333.804 278.858C327.308 277.45 321.335 274.254 316.56 269.63C311.785 265.007 308.398 259.14 306.781 252.693C305.165 246.245 305.384 239.474 307.413 233.145C309.443 226.815 313.202 221.18 318.266 216.874C323.33 212.569 329.497 209.765 336.07 208.78L342.18 156.25L339.32 155.92L339.97 150.3L364.23 153.13L363.58 158.75L360.71 158.42L354.59 211C361.851 213.905 367.955 219.118 371.959 225.835C375.964 232.553 377.648 240.401 376.75 248.17V248.17Z" fill="white"/>
<path d="M376.75 248.17C375.977 254.771 373.383 261.027 369.26 266.24L368.5 267.24C368.23 267.56 367.94 267.85 367.65 268.15C367.08 268.75 366.53 269.37 365.94 269.94C364.733 271.071 363.453 272.124 362.11 273.09C360.765 274.055 359.363 274.937 357.91 275.73C357.17 276.1 356.41 276.43 355.66 276.78C355.28 276.95 354.91 277.14 354.53 277.29L353.35 277.7C350.232 278.825 346.969 279.498 343.66 279.7L341.18 279.79C340.35 279.79 339.53 279.71 338.7 279.67C337.044 279.555 335.398 279.335 333.77 279.01C327.244 277.595 321.24 274.392 316.43 269.76L315.52 268.9L314.7 267.97C314.16 267.34 313.58 266.74 313.07 266.08C312.058 264.783 311.132 263.42 310.3 262C309.461 260.566 308.717 259.08 308.07 257.55C307.77 256.77 307.51 255.98 307.23 255.2C307.1 254.81 306.95 254.42 306.83 254.02L306.54 252.81C304.883 246.305 305.078 239.466 307.103 233.065C309.128 226.665 312.903 220.958 318 216.59C323.126 212.236 329.355 209.381 336 208.34L335.62 208.73C336.62 199.97 337.62 191.21 338.62 182.46L341.76 156.21L342.11 156.65L339.25 156.31H338.86V155.92L339.53 150.29V149.92H339.91L364.16 152.82H364.46V153.12L363.79 158.75V159.04H363.5L360.63 158.7L360.94 158.46L354.72 211L354.64 210.86C361.91 213.798 368.013 219.044 372.009 225.792C376.004 232.539 377.67 240.413 376.75 248.2V248.17ZM376.75 248.17C377.634 240.407 375.938 232.568 371.924 225.865C367.91 219.162 361.801 213.966 354.54 211.08H354.44V210.98L360.44 158.43V158.15H360.72L363.6 158.47L363.27 158.73L363.91 153.1L364.18 153.44L339.91 150.68L340.33 150.35L339.69 155.98L339.35 155.54L342.21 155.86L342.61 155.91L342.56 156.31L339.56 182.58C338.56 191.34 337.51 200.09 336.47 208.85V209.18L336.13 209.24C329.639 210.235 323.548 213.004 318.53 217.24C313.505 221.491 309.769 227.062 307.746 233.325C305.722 239.588 305.492 246.293 307.08 252.68L307.36 253.87C307.47 254.27 307.62 254.65 307.75 255.04C308.02 255.81 308.27 256.59 308.56 257.36C309.188 258.874 309.916 260.344 310.74 261.76C311.549 263.187 312.454 264.557 313.45 265.86C313.95 266.51 314.51 267.11 315.04 267.73L315.85 268.66L316.74 269.51C321.471 274.119 327.392 277.318 333.84 278.75C335.45 279.081 337.08 279.308 338.72 279.43C339.54 279.43 340.36 279.57 341.18 279.57L343.65 279.49C346.939 279.287 350.182 278.614 353.28 277.49L354.45 277.09C354.83 276.94 355.2 276.75 355.57 276.59C356.32 276.24 357.08 275.92 357.82 275.59C359.27 274.812 360.669 273.943 362.01 272.99C363.353 272.037 364.632 270.999 365.84 269.88C366.44 269.31 366.99 268.7 367.56 268.11C367.84 267.81 368.14 267.52 368.41 267.21L369.17 266.21C373.324 261.018 375.949 254.771 376.75 248.17Z" fill="#263238"/>
</g>
<path d="M370.39 247.43C369.885 251.752 368.421 255.907 366.105 259.592C363.789 263.277 360.681 266.398 357.005 268.728C353.33 271.059 349.181 272.539 344.86 273.062C340.54 273.585 336.158 273.137 332.032 271.75C327.907 270.364 324.144 268.074 321.016 265.048C317.889 262.022 315.476 258.336 313.954 254.259C312.432 250.182 311.84 245.817 312.22 241.481C312.599 237.146 313.942 232.95 316.15 229.2C321.685 232.323 327.648 234.614 333.85 236C346.25 238.8 356.19 232.91 367.29 230.52C369.999 235.717 371.079 241.61 370.39 247.43Z" fill="#ED9902"/>
<path d="M312.3 240.66C312.3 240.66 313.82 220.48 335.08 216.09Z" fill="white"/>
<path d="M337.34 175.94C336.34 181.66 343.67 179.52 343.67 179.52C343.67 179.52 333.91 185.13 335.2 191.42C336.45 197.47 345.2 194.57 345.8 194.42C345.29 194.73 336.45 200.12 338.4 206.3C340.4 212.72 348.68 208.3 349.21 208.02C348.82 208.46 343.68 214.32 346.21 218.68C350.58 226.17 364.13 211.54 371.15 211.57C371.15 211.57 372.47 223.48 372.58 223.82C372.58 223.82 385.75 210.16 385.25 200.68C385.207 199.294 384.685 197.966 383.774 196.922C382.862 195.877 381.617 195.18 380.25 194.95C380.25 194.95 384.98 191.01 383.6 186.1C382.89 183.58 378.22 182.47 378.22 182.47C378.22 182.47 381.88 179.17 380.38 174.87C379.2 171.44 374.7 170.87 374.7 170.87C374.7 170.87 376.7 166.06 374.39 162.95C369.73 156.61 339.41 163.69 337.34 175.94Z" fill="#FFC4C0"/>
<path d="M374.06 170.62C374.16 170.62 374.16 170.45 374.06 170.45C363.52 170.35 351.91 173.45 343.26 179.59C342.98 179.8 343.18 180.34 343.54 180.18C353.66 175.57 363 172.28 374.06 170.62Z" fill="#263238"/>
<path d="M378.42 182.33C378.54 182.33 378.51 182.11 378.42 182.11C367.56 182.06 354.58 185.93 345.42 194.17C345.1 194.45 345.1 195.02 345.49 194.72C352 189.7 368.46 183.77 378.42 182.33Z" fill="#263238"/>
<path d="M348.77 208.77C357.84 201.2 368.42 197.31 379.86 194.86C380.01 194.86 379.94 194.63 379.81 194.62C373.89 194.29 366.76 196.62 361.37 198.88C356.318 200.887 351.884 204.188 348.51 208.45C348.38 208.62 348.58 208.93 348.77 208.77Z" fill="#263238"/>
<path d="M343.48 179.46C343.14 179.7 343.87 179.93 343.54 180.18C342.14 181.24 334.27 188.36 335.86 191.79C337.14 194.54 341.72 194.72 343.51 194.1L348.01 192.55L344.33 195.55C342.682 196.88 341.264 198.471 340.13 200.26C339.56 201.058 339.163 201.968 338.967 202.929C338.77 203.89 338.778 204.882 338.99 205.84C339.205 206.731 339.72 207.522 340.448 208.079C341.176 208.636 342.074 208.926 342.99 208.9C345.031 208.817 347.017 208.215 348.76 207.15L353.67 204.38L349.95 208.59C348.912 209.757 348.031 211.054 347.33 212.45C346.605 213.743 346.278 215.222 346.39 216.7C346.471 217.361 346.735 217.986 347.152 218.506C347.569 219.025 348.122 219.418 348.75 219.64C350.231 219.933 351.766 219.795 353.17 219.24C356.224 218.091 359.183 216.703 362.02 215.09C363.48 214.33 364.95 213.56 366.46 212.86C367.929 212.075 369.548 211.612 371.21 211.5C369.594 211.795 368.05 212.395 366.66 213.27C365.23 214.07 363.83 214.95 362.43 215.82C359.642 217.66 356.69 219.237 353.61 220.53C351.954 221.256 350.122 221.482 348.34 221.18C347.386 220.909 346.531 220.365 345.881 219.616C345.231 218.866 344.813 217.943 344.68 216.96C344.481 215.133 344.829 213.289 345.68 211.66C346.44 210.095 347.402 208.636 348.54 207.32L349.73 208.75C347.689 210.044 345.345 210.782 342.93 210.89C341.592 210.908 340.288 210.463 339.24 209.63C338.24 208.776 337.522 207.64 337.18 206.37C336.905 205.159 336.89 203.903 337.137 202.686C337.383 201.469 337.885 200.318 338.61 199.31C339.888 197.362 341.476 195.636 343.31 194.2L344.13 195.67C341.83 196.38 336.69 196.74 334.13 192.72C331.63 187 341.58 180.52 343.48 179.46Z" fill="#263238"/>
<path d="M343.67 179.52C342.479 179.628 341.279 179.554 340.11 179.3C339.64 179.208 339.202 178.993 338.842 178.677C338.482 178.361 338.212 177.955 338.06 177.5C337.869 176.455 337.991 175.376 338.41 174.4C338.8 173.3 339.28 172.16 339.81 171.01C338.766 171.774 337.894 172.748 337.25 173.87C336.471 175.081 336.202 176.551 336.5 177.96C336.748 178.707 337.215 179.362 337.84 179.84C338.453 180.259 339.169 180.504 339.91 180.55C341.241 180.614 342.558 180.254 343.67 179.52V179.52Z" fill="#263238"/>
<path d="M165.89 328.39C165.89 328.39 167.31 344.45 169.42 367.69C169.48 368.36 169.54 369.04 169.61 369.69C170.61 381.1 171.82 394.1 173.06 407.69H246.06C240.83 366.78 236.31 331.54 235.92 328.54V328.32L165.89 328.39Z" fill="#37474F"/>
<path d="M176.12 337.59C176.567 343.21 177.037 348.83 177.53 354.45C177.67 356.08 177.83 357.7 177.97 359.32V359.37C179.38 375.5 180.87 391.64 182.53 407.75H183.58C181.8 391.17 180.14 374.58 178.46 357.97C178.28 356.17 178.1 354.38 177.91 352.57C177.41 347.57 176.91 342.63 176.39 337.65C176.36 337.42 176.1 337.42 176.12 337.59Z" fill="#263238"/>
<path d="M148.85 328.39C148.85 328.39 152.18 347.23 156.85 373.62C156.94 374.04 157.01 374.46 157.09 374.91C158.88 385 160.85 396.15 162.91 407.74H213.76L214.92 400.09L215.14 398.59L215.2 398.2L216.04 392.58L216.37 390.48L225.8 328.39H148.85Z" fill="#263238"/>
<path d="M129.29 407.76H198.36C198.36 407.46 198.36 407.23 198.36 407.04C198.36 406.85 198.36 406.57 198.36 406.57C198.75 406.36 199.13 406.14 199.52 405.94C203.58 403.73 207.15 402.01 210.08 400.7L211.53 400.05C212.86 399.47 214.05 398.99 215.04 398.6C217.58 397.6 219.04 397.15 219.04 397.15C219.12 396.93 219.2 396.73 219.27 396.52C229.27 371.04 235.27 332.22 235.87 328.61V328.33H137.3C137.3 328.33 133.54 364.85 129.29 407.76Z" fill="#37474F"/>
<path d="M139 407.76H139.92C141.73 384.89 143.41 362.01 145.16 339.14C145.16 338.76 144.61 338.76 144.59 339.14C142.737 362.007 140.873 384.88 139 407.76Z" fill="#263238"/>
<path d="M222.61 395.32C214.246 398.363 206.162 402.127 198.45 406.57C198.15 406.74 198.35 407.21 198.67 407.07C206.81 403.58 215.11 400.23 223.05 396.29C223.179 396.232 223.279 396.125 223.329 395.992C223.378 395.86 223.373 395.714 223.315 395.585C223.257 395.456 223.15 395.356 223.017 395.306C222.885 395.257 222.739 395.262 222.61 395.32Z" fill="#263238"/>
<path d="M225.2 339.47C225.2 339.19 224.68 339.13 224.68 339.47C224.682 348.554 224.228 357.632 223.32 366.67C222.94 370.86 219.57 394.03 212.32 392.34C211.1 392.06 210.48 390.86 210.32 389.02C210.09 386.82 210.92 384.11 211.32 381.92C212.13 377.07 212.78 372.2 213.19 367.3C214.039 358.178 213.941 348.992 212.9 339.89C212.889 339.836 212.859 339.787 212.816 339.753C212.774 339.718 212.72 339.699 212.665 339.699C212.61 339.699 212.556 339.718 212.514 339.753C212.471 339.787 212.441 339.836 212.43 339.89C212.43 352.55 212.11 365.19 210.22 377.73C209.31 383.73 206.27 392.83 212.57 393.73C218.87 394.63 223.15 379.48 223.93 375.32C226 363.73 226.11 351.21 225.2 339.47Z" fill="#263238"/>
<path d="M212.49 392.92C211.844 394.483 211.3 396.087 210.86 397.72C210.388 398.983 210.158 400.322 210.18 401.67C210.18 401.93 210.54 401.95 210.68 401.78C211.432 400.592 212.002 399.297 212.37 397.94C212.92 396.45 213.51 394.94 214.02 393.48C214.067 393.284 214.041 393.078 213.946 392.901C213.851 392.723 213.694 392.587 213.505 392.518C213.316 392.449 213.108 392.451 212.921 392.526C212.734 392.6 212.58 392.74 212.49 392.92V392.92Z" fill="#263238"/>
<path d="M179.6 347.05C179.613 346.041 179.509 345.035 179.29 344.05C179.279 344.019 179.258 343.993 179.231 343.974C179.205 343.956 179.173 343.946 179.14 343.946C179.107 343.946 179.075 343.956 179.049 343.974C179.022 343.993 179.001 344.019 178.99 344.05C178.787 344.902 178.673 345.774 178.65 346.65C178.55 347.65 178.42 348.65 178.31 349.65C178.097 351.689 177.743 353.71 177.25 355.7C176.333 359.472 174.416 362.926 171.7 365.7C169.003 368.353 165.813 370.452 162.31 371.88C158.4 373.53 154.31 374.15 150.26 375.34C150.09 375.34 150.14 375.63 150.31 375.63C154.768 375.623 159.182 374.753 163.31 373.07C166.976 371.692 170.314 369.563 173.11 366.82C175.915 363.986 177.889 360.437 178.82 356.56C179.274 354.566 179.535 352.534 179.6 350.49C179.666 349.344 179.666 348.196 179.6 347.05Z" fill="#263238"/>
<path d="M245.05 347.18L236.71 300.77C236.71 300.77 245.5 287.32 244.22 271.43C243.29 259.87 218.22 219.43 216.13 217.43C207.59 209.43 193.19 212.64 187.28 217.11C154.53 241.87 142.09 295 131 347.18H245.05Z" fill="#ED9902"/>
<path d="M205.64 296.46C210.356 296.183 215.085 296.257 219.79 296.68C222.12 296.92 224.43 297.27 226.79 297.68C227.94 297.88 229.09 298.04 230.25 298.19C231.46 298.386 232.689 298.433 233.91 298.33C233.928 298.336 233.943 298.348 233.954 298.363C233.965 298.378 233.97 298.396 233.97 298.415C233.97 298.434 233.965 298.452 233.954 298.467C233.943 298.482 233.928 298.494 233.91 298.5C232.778 298.725 231.632 298.875 230.48 298.95C229.358 298.977 228.236 298.933 227.12 298.82C224.74 298.59 222.38 298.26 220.02 298.01C215.24 297.52 210.46 297.01 205.65 296.87C205.41 296.85 205.41 296.47 205.64 296.46Z" fill="#263238"/>
<path d="M194.75 302.3C198.522 301.313 202.349 300.545 206.21 300C208.14 299.73 210.07 299.58 212.02 299.48C212.95 299.43 213.88 299.4 214.81 299.38C215.74 299.36 216.86 299.48 217.89 299.44C217.99 299.44 218.02 299.6 217.89 299.61C216.89 299.67 215.97 299.9 215.01 300.02L212.12 300.37C210.19 300.61 208.26 300.87 206.33 301.09C202.46 301.53 198.62 302.01 194.77 302.59C194.58 302.65 194.55 302.35 194.75 302.3Z" fill="#263238"/>
<path d="M217.83 219.18L229.14 271.72L239.35 407.72H262.68C262.68 407.72 238.53 298.31 238.62 297.43C238.71 296.55 249.26 284.96 246.31 269.08C243.36 253.2 219.87 220.63 217.83 219.18Z" fill="#EBEBEB"/>
<path d="M220.29 223.41C221.38 226.11 222.5 228.8 223.63 231.48C224.76 234.16 225.87 236.86 227.02 239.53C229.307 244.863 231.64 250.197 234.02 255.53L234.25 254.53C231.72 256.59 226.6 261.32 226.6 261.32L235.68 273.7C235.68 273.7 234.87 311.3 234.58 314.7C235.25 311.34 237.21 273.3 237.21 273.3L228.21 261.03L227.98 262.22C230.46 260.11 232.92 257.99 235.37 255.83L235.86 255.39L235.59 254.81C233.123 249.543 230.62 244.29 228.08 239.05C226.82 236.42 225.52 233.82 224.23 231.21C222.94 228.6 221.63 226 220.29 223.41Z" fill="#DBDBDB"/>
<path d="M196.07 218.21C196.66 220.29 206.07 232.42 215.63 231.51C218.74 231.21 219.1 215.13 219.1 215.13L219.32 213.86L222.41 196L201 183.71L198 182.1C198 182.1 197.47 187.04 196.88 193.19C196.88 193.47 196.82 193.76 196.79 194.07C196.76 194.38 196.71 194.74 196.68 195.07C196.58 195.98 196.48 196.92 196.41 197.86C196.34 198.57 196.28 199.26 196.24 200.01C196.2 200.76 196.14 201.5 196.08 202.25C195.63 209.67 195.83 217.33 196.07 218.21Z" fill="#FFC4C0"/>
<path d="M196.84 193.19C198.862 198.061 201.92 202.433 205.802 206.002C209.684 209.572 214.297 212.253 219.32 213.86L222.41 196L201 183.71L198 182.1C198 182.1 197.43 187 196.84 193.19Z" fill="#263238"/>
<path d="M245.77 164.53C252.47 195.59 234.62 203.11 227.92 204.53C221.84 205.84 200.92 209.53 191.09 179.3C181.26 149.07 193.54 136.16 207.29 132.44C221.04 128.72 239.07 133.46 245.77 164.53Z" fill="#FFC4C0"/>
<path d="M239 160C238.268 159.99 237.537 159.94 236.81 159.85C236.034 159.908 235.26 159.708 234.61 159.28C234.428 159.107 234.309 158.878 234.273 158.63C234.237 158.381 234.285 158.128 234.41 157.91C234.723 157.525 235.132 157.23 235.595 157.054C236.059 156.879 236.561 156.829 237.05 156.91C238.076 156.913 239.063 157.298 239.82 157.99C239.97 158.159 240.07 158.367 240.108 158.589C240.146 158.812 240.121 159.041 240.035 159.25C239.95 159.459 239.808 159.64 239.625 159.773C239.442 159.905 239.225 159.984 239 160V160Z" fill="#263238"/>
<path d="M218.15 168C218.87 167.81 219.51 167.51 220.21 167.25C220.97 167.083 221.655 166.672 222.16 166.08C222.283 165.862 222.331 165.61 222.297 165.363C222.262 165.115 222.147 164.886 221.97 164.71C221.563 164.421 221.086 164.245 220.589 164.201C220.092 164.157 219.591 164.246 219.14 164.46C218.159 164.745 217.32 165.387 216.79 166.26C216.681 166.466 216.634 166.7 216.655 166.932C216.675 167.165 216.763 167.387 216.906 167.57C217.05 167.754 217.244 167.893 217.465 167.969C217.685 168.045 217.923 168.056 218.15 168Z" fill="#263238"/>
<path d="M223.48 171.89C223.48 171.82 223.33 172.02 223.34 172.11C223.77 174.23 223.9 176.73 222.09 177.77C222.03 177.77 222.09 177.9 222.09 177.88C224.42 177.16 224.22 173.84 223.48 171.89Z" fill="#263238"/>
<path d="M221.2 170C217.72 170.32 218.6 177.25 221.83 177C225.06 176.75 224.11 169.72 221.2 170Z" fill="#263238"/>
<path d="M219.88 170.52C219.33 170.99 218.82 171.76 218.1 171.93C217.38 172.1 216.54 171.47 215.9 170.85C215.83 170.78 215.78 170.85 215.79 170.94C215.94 172.27 216.62 173.57 218.07 173.58C219.52 173.59 220.18 172.3 220.34 170.93C220.37 170.67 220.11 170.33 219.88 170.52Z" fill="#263238"/>
<path d="M235.43 169.12C235.43 169.04 235.61 169.21 235.61 169.3C235.69 171.47 236.15 173.93 238.15 174.51C238.22 174.51 238.22 174.64 238.15 174.63C235.74 174.46 235.16 171.19 235.43 169.12Z" fill="#263238"/>
<path d="M237.21 166.74C240.66 166.23 241.41 173.18 238.21 173.64C235.01 174.1 234.31 167.16 237.21 166.74Z" fill="#263238"/>
<path d="M238.61 167C239.26 167.32 239.93 167.95 240.67 167.94C241.41 167.93 242.08 167.14 242.56 166.38C242.61 166.3 242.68 166.38 242.69 166.45C242.85 167.78 242.49 169.2 241.08 169.55C239.67 169.9 238.74 168.8 238.26 167.49C238.17 167.21 238.35 166.82 238.61 167Z" fill="#263238"/>
<path d="M225.83 188.5C226.39 188.96 226.96 189.61 227.75 189.62C228.554 189.539 229.331 189.286 230.03 188.88C230.045 188.874 230.061 188.873 230.077 188.877C230.092 188.881 230.107 188.889 230.117 188.901C230.128 188.913 230.135 188.928 230.137 188.944C230.14 188.959 230.137 188.976 230.13 188.99C229.856 189.438 229.466 189.803 229.001 190.048C228.536 190.292 228.014 190.407 227.49 190.38C227.04 190.302 226.623 190.092 226.291 189.777C225.96 189.462 225.73 189.056 225.63 188.61C225.59 188.49 225.75 188.43 225.83 188.5Z" fill="#263238"/>
<path d="M233.71 179.5C233.71 179.5 234.6 182.64 234.81 184.15C234.81 184.29 234.48 184.41 233.97 184.51C233.97 184.51 233.97 184.51 233.91 184.51C232.646 184.927 231.291 184.988 229.995 184.687C228.699 184.385 227.51 183.732 226.56 182.8C226.44 182.67 226.61 182.49 226.76 182.56C228.865 183.623 231.258 183.974 233.58 183.56C233.58 183.12 231.87 178.23 232.11 178.18C233.298 178.119 234.489 178.22 235.65 178.48C233.99 171.89 231.28 165.61 229.72 159.02C229.67 158.79 230.01 158.67 230.1 158.87C233.41 165.25 235.48 172.79 237.38 179.55C237.62 180.37 234.35 179.67 233.71 179.5Z" fill="#263238"/>
<path d="M189.31 178.53C194.71 178.95 195.95 167.62 195.95 167.62C195.95 167.62 206.95 167.62 210.54 151.88C210.224 156.593 208.538 161.112 205.69 164.88C205.69 164.88 225.04 162.88 233.18 146.64C233.18 146.64 229.93 154.89 226.89 157.82C226.89 157.82 235 155.56 238.96 148.97C238.96 148.97 242.35 158.31 244.96 160.89C244.96 160.89 244.17 127.04 212.8 130.64C212.8 130.64 193.16 131.94 186.11 147.49C179.06 163.04 189.31 178.53 189.31 178.53Z" fill="#263238"/>
<path d="M207.67 167.06C207.67 167.06 188.82 170.66 185.26 173.72C183.8 174.98 185.44 181.82 186.63 182.66C187.38 183.19 197.63 178.58 208.63 177.08C208.64 177.08 206.61 171.37 207.67 167.06Z" fill="#455A64"/>
<path opacity="0.2" d="M246.4 174.81C246.164 175.18 245.9 175.531 245.61 175.86C244.45 177.15 242.92 177.75 240.33 177.09C238.64 176.66 237.33 175.01 234.57 175.32C232.854 175.448 231.207 176.046 229.81 177.05C228.895 177.696 228.02 178.397 227.19 179.15C226.98 179.32 226.77 179.51 226.56 179.7C226.37 179.879 226.166 180.043 225.95 180.19C225.633 180.428 225.299 180.642 224.95 180.83C220.86 183.02 214.08 183.11 211.48 181.18C209.1 179.42 207.29 174.27 207.57 169.3C207.618 168.233 207.779 167.173 208.05 166.14C208.314 165.124 208.708 164.146 209.22 163.23C209.32 163.06 209.41 162.9 209.51 162.75C209.801 162.316 210.136 161.914 210.51 161.55C212.98 159 217.74 156.95 222.91 155.71L224.5 155.37C225.65 155.13 226.81 154.94 227.96 154.79C229.29 154.62 230.62 154.5 231.9 154.46C236.44 154.28 240.43 154.92 242.53 156.6C244.011 157.883 245.12 159.541 245.74 161.4C246.076 162.286 246.35 163.195 246.56 164.12C247.226 167.072 247.368 170.119 246.98 173.12C246.888 173.713 246.692 174.285 246.4 174.81Z" fill="white"/>
<g opacity="0.2">
<path d="M246.4 174.81C246.164 175.18 245.9 175.531 245.61 175.86L235 170.52C234.662 170.353 234.398 170.066 234.259 169.714C234.121 169.363 234.118 168.973 234.252 168.62C234.385 168.267 234.645 167.976 234.981 167.804C235.318 167.632 235.706 167.592 236.07 167.69C236.173 167.714 236.273 167.748 236.37 167.79L246.97 173.11C246.883 173.706 246.689 174.282 246.4 174.81V174.81Z" fill="white"/>
<path d="M229.81 177.05C228.895 177.696 228.02 178.397 227.19 179.15L207.55 169.3C207.598 168.233 207.759 167.173 208.03 166.14L229.81 177.05Z" fill="white"/>
<path d="M223.66 169.32C223.56 169.534 223.388 169.705 223.174 169.804C222.959 169.902 222.717 169.922 222.49 169.86C222.417 169.842 222.346 169.815 222.28 169.78L209.2 163.23C209.3 163.06 209.39 162.9 209.49 162.75C209.781 162.316 210.116 161.914 210.49 161.55L223.23 167.94C223.351 168 223.459 168.084 223.546 168.187C223.634 168.29 223.7 168.409 223.74 168.538C223.78 168.667 223.794 168.803 223.78 168.937C223.766 169.072 223.725 169.202 223.66 169.32Z" fill="white"/>
<path d="M246.51 164.12L227.91 154.79C229.24 154.62 230.57 154.5 231.85 154.46L245.69 161.4C246.026 162.286 246.3 163.195 246.51 164.12V164.12Z" fill="white"/>
<path d="M242.87 165.18C242.816 165.281 242.729 165.362 242.624 165.409C242.519 165.456 242.402 165.467 242.29 165.44H242.18L222.86 155.75L224.45 155.41L242.64 164.53C242.754 164.588 242.842 164.688 242.885 164.809C242.928 164.93 242.922 165.063 242.87 165.18Z" fill="white"/>
<path d="M226 180.19C225.683 180.428 225.349 180.642 225 180.83L215 175.83C214.94 175.799 214.887 175.757 214.843 175.706C214.8 175.654 214.767 175.595 214.746 175.531C214.726 175.467 214.718 175.399 214.724 175.332C214.73 175.265 214.749 175.2 214.78 175.14C214.83 175.035 214.916 174.951 215.022 174.903C215.128 174.856 215.248 174.847 215.36 174.88H215.47L226 180.19Z" fill="white"/>
</g>
<path d="M214.2 183.08C213.074 182.815 212.024 182.295 211.13 181.56C207.49 178.43 204.97 168.82 209.06 162.47C211.81 158.21 220.06 155.47 226.31 154.47C232.09 153.54 239.46 153.47 242.8 156.18C248.31 160.61 248.34 171.55 246.88 174.98C245.88 177.32 243.26 178.34 240.2 177.56C239.561 177.375 238.944 177.12 238.36 176.8C237.218 176.129 235.914 175.783 234.59 175.8C232.03 175.93 230.59 176.95 226.89 180.07C225.125 181.472 223.073 182.469 220.88 182.989C218.687 183.509 216.406 183.54 214.2 183.08ZM209.92 163C206.23 168.73 208.41 177.84 211.8 180.76C214.89 183.43 222.18 182.69 226.24 179.28C229.83 176.28 231.54 174.92 234.54 174.77C236.04 174.74 237.518 175.128 238.81 175.89C239.332 176.173 239.881 176.401 240.45 176.57C242.45 177.08 244.98 176.83 245.94 174.57C247.27 171.44 247.22 161.03 242.16 156.96C239.59 154.89 233.58 154.32 226.47 155.47C218.53 156.76 212.03 159.71 209.92 162.99V163Z" fill="#455A64"/>
<path d="M196.54 180.64C196.54 180.64 188.41 171.64 184.26 174.69C180.11 177.74 187.08 191.32 192.57 192.61C193.263 192.824 193.993 192.896 194.714 192.821C195.436 192.746 196.135 192.525 196.769 192.173C197.403 191.821 197.96 191.344 198.405 190.771C198.85 190.199 199.175 189.542 199.36 188.84L196.54 180.64Z" fill="#FFC4C0"/>
<path d="M186.36 178.54C186.345 178.546 186.331 178.556 186.322 178.569C186.313 178.583 186.308 178.599 186.308 178.615C186.308 178.631 186.313 178.647 186.322 178.661C186.331 178.674 186.345 178.684 186.36 178.69C190.22 179.69 192.59 182.87 194.36 186.24C193.1 185.02 191.51 184.46 189.86 185.99C189.77 186.07 189.86 186.21 189.98 186.17C190.6 185.883 191.293 185.795 191.965 185.919C192.636 186.042 193.253 186.371 193.73 186.86C194.526 187.681 195.23 188.586 195.83 189.56C196.05 189.87 196.62 189.62 196.44 189.26C196.444 189.23 196.444 189.2 196.44 189.17C195.92 184.48 191.45 178.38 186.36 178.54Z" fill="#263238"/>
<path d="M193.36 192.82C193.36 193.164 193.462 193.501 193.653 193.787C193.844 194.073 194.116 194.296 194.434 194.428C194.752 194.559 195.102 194.594 195.439 194.527C195.777 194.459 196.087 194.294 196.33 194.05C196.574 193.807 196.739 193.497 196.807 193.159C196.874 192.822 196.839 192.472 196.708 192.154C196.576 191.836 196.353 191.564 196.067 191.373C195.781 191.182 195.444 191.08 195.1 191.08C194.872 191.08 194.645 191.125 194.434 191.212C194.223 191.3 194.031 191.428 193.87 191.59C193.708 191.751 193.58 191.943 193.492 192.154C193.405 192.365 193.36 192.592 193.36 192.82Z" fill="white"/>
<path d="M219 216.83L218.15 225.69C217.74 235.39 216.47 239.27 214.38 239.42C207.51 239.89 196.78 221.97 196.04 218.21C195.3 214.45 219 216.83 219 216.83Z" fill="#FFC4C0"/>
<path d="M118.54 407.76H211.31L195.67 213.41C195.67 213.41 192.34 213.18 184.07 218.91C175.24 225.02 166.27 237.53 154.14 263.76C126.14 324.32 118.54 407.76 118.54 407.76Z" fill="#EBEBEB"/>
<path d="M192.43 234.89C189.32 244.89 162.52 310.58 152.77 322.34C145.36 331.28 122.06 342.78 115.84 319.17C111.7 303.44 159.41 239.95 180.92 221.36C190.8 212.83 199 213.85 192.43 234.89Z" fill="#EBEBEB"/>
<path d="M131.2 333.24C135.177 333.038 139.059 331.959 142.57 330.08C146.07 328.262 149.192 325.795 151.77 322.81C153.057 321.329 154.237 319.759 155.3 318.11C156.36 316.45 157.3 314.71 158.3 312.97C160.17 309.47 161.92 305.89 163.61 302.28C167.09 295.11 170.31 287.82 173.61 280.54L183.33 258.65C182 262.42 180.55 266.14 179.14 269.88C177.73 273.62 176.14 277.29 174.67 280.99C171.623 288.377 168.4 295.69 165 302.93C163.26 306.53 161.46 310.1 159.53 313.62C158.53 315.37 157.53 317.12 156.45 318.81C155.345 320.514 154.086 322.114 152.69 323.59C149.932 326.569 146.629 328.993 142.96 330.73C141.127 331.574 139.21 332.221 137.24 332.66C135.263 333.133 133.231 333.328 131.2 333.24V333.24Z" fill="#263238"/>
<path d="M179.67 267.45C180.376 266.293 181.158 265.184 182.01 264.13C182.84 263.08 183.68 262.06 184.56 261C184.137 262.317 183.457 263.537 182.56 264.59C181.734 265.673 180.761 266.635 179.67 267.45Z" fill="#263238"/>
<path d="M195.67 213.41C194.26 216.63 184.51 245.41 181.89 251.89L181.65 252.48L182.16 252.89C185.66 255.65 189.177 258.393 192.71 261.12L192.53 259.77L182.73 272.77L182.41 273.2L182.6 273.69C185.44 280.87 203.42 313.93 205.01 317.45C203.78 313.79 187.18 280.18 184.38 273L184.25 273.92L194.07 260.99L194.65 260.22L193.89 259.64C190.343 256.933 186.787 254.243 183.22 251.57L183.49 252.57C186 246 194.51 216.73 195.67 213.41Z" fill="#DBDBDB"/>
<path d="M142.7 359.4C142.33 371.1 142.87 384.33 145.36 386.76C150.02 391.32 162.44 390.94 166.36 390.9C170.28 390.86 184.17 390.9 187.43 383.69C188.87 380.53 189.25 364.2 189.21 358.42C189.21 356.08 188.67 344.53 188.49 343.24C188.49 342.93 187.63 342.97 187.6 343.17C187.4 344.49 187.53 349.28 187.46 350.17C165.08 353.05 151.22 350.64 144.04 349.26C144.04 347.1 144.04 345.42 144.04 343.26C151.035 344.543 158.129 345.212 165.24 345.26C173.013 345.1 180.773 344.549 188.49 343.61C188.67 343.61 188.54 342.72 188.27 342.73C185.35 342.73 175.27 343.73 165.06 343.73C157.776 343.593 150.507 343.025 143.29 342.03C142.88 342.2 142.87 353.79 142.7 359.4ZM146.7 385.4C144.23 382.56 143.92 374.4 143.93 369.51C143.93 362.78 143.93 357.41 143.93 350.68C161.16 354.68 180.13 352.68 187.32 351.26C187.32 351.55 187.45 365.74 187.32 370.26C187.15 376.04 186.97 381.26 184.75 384.26C182.85 386.84 177.48 389.42 165.15 389.41C156.3 389.42 148.78 387.8 146.72 385.43L146.7 385.4Z" fill="#DBDBDB"/>
<path d="M127.46 208.25C130.78 195.04 136.63 176.74 141.86 173.34C147.34 169.78 167.13 158.03 172.61 156.78C178.09 155.53 198.61 158.45 202.61 161.43C205.85 163.81 201.9 171.17 190.55 171.83C179.94 172.45 177.37 172.08 174.43 172.98C171.49 173.88 163.5 182.44 164.93 186.76C165.77 189.31 172.51 192.93 177.12 191.43C181.73 189.93 183.91 184.89 189.37 181.34C194.83 177.79 203.62 179.27 203.87 181.71C204.12 184.15 201.07 184.95 195.66 192.56C192.18 197.46 190.46 206.43 182.87 214.68C179.07 218.83 171.97 230.2 171.97 230.2L127.46 208.25Z" fill="#FFC4C0"/>
<path d="M141.86 173.34C146.86 167.11 159.09 156.23 170.35 153.27C177.96 151.27 201.77 166.27 200.51 170.98C199.25 175.69 194.96 175.25 188.68 173.8C186.4 173.27 174.62 167.53 172.25 169.88C168.85 173.24 163.65 185.45 163.65 185.45L141.86 173.34Z" fill="#FFC4C0"/>
<path d="M200.1 169C197.55 163.52 191.02 160 184.47 157.12C184.36 157.07 184.29 157.23 184.39 157.27C186.06 158.02 196.57 164.27 200.01 169.08C200.05 169.16 200.12 169.09 200.1 169Z" fill="#263238"/>
<path d="M141.86 173.34C146.86 167.11 159.09 156.23 170.35 153.27C177.96 151.27 196.15 169.1 194.89 173.83C193.63 178.56 187.42 178.26 180.89 175.15C178.77 174.15 171.89 168.15 169.57 170.47C166.17 173.84 157.85 182.21 157.85 182.21L141.86 173.34Z" fill="#FFC4C0"/>
<path d="M162.66 177C163.46 176 163.73 175.67 164.55 174.71C165.37 173.75 166.2 172.79 167.08 171.89C167.788 171.041 168.637 170.321 169.59 169.76C170.563 169.337 171.648 169.242 172.68 169.49C175.02 169.97 176.99 171.71 178.87 173.08C180.97 174.61 185.39 177.2 188.99 177.21C189.975 177.264 190.96 177.107 191.88 176.75C192.575 176.523 193.204 176.128 193.71 175.6C195.54 173.15 193.93 169.95 192.19 167.6C188.95 163.25 184.32 159.85 179.79 156.98C178.67 156.27 177.54 155.6 176.41 154.92C175.154 154.06 173.729 153.477 172.23 153.21C169.76 152.93 165.43 155 164.09 155.62C163.99 155.67 163.94 155.5 164.04 155.45C165.66 154.67 169.76 152 173.73 152.64C175.162 153.016 176.516 153.642 177.73 154.49C179.05 155.24 180.35 156.04 181.63 156.86C184.139 158.448 186.519 160.23 188.75 162.19C190.995 164.018 192.886 166.241 194.33 168.75C194.922 169.864 195.203 171.118 195.141 172.378C195.079 173.639 194.678 174.859 193.98 175.91C192.69 177.6 190.32 177.79 189.24 177.81C188.178 177.829 187.118 177.701 186.09 177.43C183.822 176.673 181.61 175.758 179.47 174.69C177.4 173.59 175.62 171.92 173.47 171C172.964 170.763 172.417 170.628 171.859 170.604C171.301 170.58 170.744 170.667 170.22 170.86C169.246 171.372 168.353 172.026 167.57 172.8C165.92 174.1 164.397 175.553 163.02 177.14C162.64 177.59 162.32 177.4 162.66 177Z" fill="#263238"/>
<path d="M138.05 178.84C139.97 175.84 144.05 162.98 147.05 159.23C150.05 155.48 163.12 142.82 168.45 144.01C175.16 145.51 166.75 157.01 162.64 161.63C158.53 166.25 158.2 174.91 158.2 174.91L138.05 178.84Z" fill="#FFC4C0"/>
<path d="M168.48 153.81C167.04 155.27 165.73 156.92 164.48 158.51C163.172 159.977 161.972 161.538 160.89 163.18C159.953 164.879 159.301 166.72 158.96 168.63C158.77 169.56 158.63 170.5 158.52 171.45C158.41 172.4 158.38 173.54 158.25 174.57C158.256 174.588 158.268 174.603 158.283 174.614C158.298 174.625 158.316 174.63 158.335 174.63C158.354 174.63 158.372 174.625 158.387 174.614C158.402 174.603 158.414 174.588 158.42 174.57C158.746 172.692 159.197 170.838 159.77 169.02C160.317 167.126 161.092 165.306 162.08 163.6C164.08 160.22 166.73 157.3 168.73 153.93C168.78 153.83 168.58 153.71 168.48 153.81Z" fill="#263238"/>
<path d="M158.1 176.36C158.032 177.962 158.197 179.565 158.59 181.12C158.938 182.679 159.392 184.213 159.95 185.71C160.486 187.209 161.103 188.678 161.8 190.11C162.46 191.55 163.32 192.88 164.14 194.28C165.899 197.035 167.209 200.053 168.02 203.22C168.769 206.39 168.949 209.667 168.55 212.9C168.582 209.694 168.165 206.5 167.31 203.41C166.368 200.371 165.023 197.472 163.31 194.79C162.439 193.418 161.651 191.996 160.95 190.53C160.264 189.048 159.679 187.521 159.2 185.96C158.29 182.87 157.51 179.58 158.1 176.36Z" fill="#263238"/>
<path d="M174.77 191.72C176.956 191.529 178.984 190.501 180.43 188.85C181.81 187.47 183.1 185.99 184.5 184.62C185.816 183.201 187.332 181.981 189 181C190.968 180.041 193.062 179.367 195.22 179C197.276 178.47 199.434 178.47 201.49 179C203.16 179.51 205.04 180.9 204.49 182.93C204.173 183.845 203.688 184.693 203.06 185.43C202.464 186.166 201.819 186.861 201.13 187.51C199.75 188.84 198.25 190.07 197 191.51C195.32 193.51 194.35 195.94 193.24 198.25C192.83 199.11 190.24 204.9 189.24 206.88C188.388 208.574 187.384 210.187 186.24 211.7C185.109 213.09 183.893 214.409 182.6 215.65C181.193 217.001 179.936 218.5 178.85 220.12C178.85 220.2 178.7 220.12 178.73 220.04C179.94 216.83 182.58 214.41 184.96 212.04C188.04 208.99 193.79 194.71 194.96 192.73C196.84 189.41 200.14 187.48 202.4 184.51C202.92 183.83 203.72 182.84 203.57 181.91C203.435 181.479 203.193 181.089 202.865 180.778C202.538 180.467 202.137 180.244 201.7 180.13C199.691 179.593 197.569 179.648 195.59 180.29C193.524 180.693 191.511 181.331 189.59 182.19C187.938 183.059 186.416 184.156 185.07 185.45C183.51 186.89 182.07 188.37 180.38 189.7C178.82 191.085 176.806 191.851 174.72 191.85C174.64 191.88 174.66 191.73 174.77 191.72Z" fill="#263238"/>
<path d="M199.12 160.27C197.63 159.79 196.12 159.27 194.66 158.81V158.75C196.41 159.17 198.21 159.47 199.97 159.88C200.691 159.975 201.385 160.217 202.009 160.59C202.633 160.963 203.175 161.46 203.6 162.05C203.902 162.668 204.039 163.353 203.999 164.04C203.959 164.727 203.742 165.392 203.37 165.97C202.498 167.191 201.377 168.214 200.08 168.97C200.073 168.975 200.066 168.978 200.058 168.98C200.05 168.981 200.042 168.981 200.034 168.98C200.027 168.979 200.019 168.976 200.012 168.971C200.005 168.967 200 168.962 199.995 168.955C199.99 168.948 199.987 168.941 199.985 168.933C199.984 168.925 199.984 168.917 199.985 168.909C199.986 168.902 199.989 168.894 199.994 168.887C199.998 168.88 200.003 168.875 200.01 168.87C201.84 167.41 204.63 164.62 202.61 162.19C201.649 161.236 200.44 160.571 199.12 160.27V160.27Z" fill="#263238"/>
<path d="M194.32 174.63C195.964 174.574 197.559 174.054 198.92 173.13C199.472 172.698 199.886 172.114 200.11 171.45C200.223 171.088 200.277 170.71 200.27 170.33C200.299 169.931 200.185 169.534 199.95 169.21C199.87 169.14 200.02 169.05 200.05 169.14C200.08 169.23 200.3 169.52 200.4 169.72C200.486 169.889 200.553 170.067 200.6 170.25C200.69 170.616 200.711 170.996 200.66 171.37C200.545 172.188 200.149 172.942 199.54 173.5C198.828 174.101 197.985 174.528 197.079 174.747C196.173 174.965 195.228 174.97 194.32 174.76C194.307 174.755 194.296 174.746 194.288 174.734C194.28 174.723 194.276 174.709 194.276 174.695C194.276 174.681 194.28 174.667 194.288 174.656C194.296 174.644 194.307 174.635 194.32 174.63Z" fill="#263238"/>
<path d="M172 230.2C170.36 243.1 151.86 310.95 145.91 321.34C139.96 331.73 124.55 338.34 117.19 322.2C109.83 306.06 123.86 221.66 127.47 208.25C129.47 200.79 172.59 225.53 172 230.2Z" fill="#FFC4C0"/>
<path d="M178.91 237.73L123.33 215.39C123.33 215.39 112.26 293.8 115.21 317.07C117.33 333.77 137.63 342.67 150.21 317.88C162.79 293.09 178.91 237.73 178.91 237.73Z" fill="#EBEBEB"/>
<path d="M173.22 247.88C164.85 244.88 131.05 231.11 123.95 227.65C123.46 227.41 123.49 227.04 124.04 227.22C149.34 235.75 165.27 244.13 173.33 247.54C173.53 247.63 173.43 248 173.22 247.88Z" fill="#263238"/>
<path d="M162.54 290.16C166.54 279.16 170.21 268.16 173.37 256.97C174.25 253.83 175.11 250.69 175.93 247.54C176.75 244.39 177.53 241.47 178.19 238.4C177 237.81 171.85 235.4 171.27 235C171.234 234.971 171.208 234.93 171.197 234.885C171.187 234.839 171.191 234.791 171.211 234.749C171.23 234.706 171.264 234.672 171.305 234.65C171.347 234.629 171.394 234.621 171.44 234.63C172.09 234.78 178.02 237.16 179.31 237.86C179.49 237.95 177.97 243.96 177.31 246.86C176.65 249.76 175.94 252.58 175.2 255.42C173.733 261.047 172.123 266.64 170.37 272.2C168.49 278.2 166.46 284.123 164.28 289.97C162.39 295 157.46 304.26 162.54 290.16Z" fill="#263238"/>
<path d="M266.93 367.2H262.99V444.06H266.93V367.2Z" fill="#263238"/>
<path d="M350.9 438.67H266.93V444.05H350.9V438.67Z" fill="#263238"/>
<path d="M295.63 362.1L295.34 426.44C295.331 428.453 294.522 430.38 293.092 431.797C291.662 433.214 289.728 434.004 287.715 433.995C285.702 433.986 283.775 433.177 282.358 431.747C280.941 430.317 280.151 428.383 280.16 426.37L280.45 362.03L295.63 362.1Z" fill="#EBEBEB"/>
<path d="M294.66 380.71L294.46 426.39C294.456 427.271 294.279 428.143 293.938 428.956C293.597 429.768 293.099 430.506 292.473 431.126C291.848 431.746 291.106 432.237 290.29 432.571C289.475 432.904 288.601 433.074 287.72 433.07C286.839 433.066 285.967 432.889 285.154 432.548C284.342 432.207 283.604 431.709 282.984 431.083C282.364 430.458 281.873 429.716 281.539 428.9C281.206 428.084 281.036 427.211 281.04 426.33L281.24 380.65L294.66 380.71Z" fill="#C7C7C7"/>
<path d="M298.03 356.439L278.09 356.348L278.045 366.348L297.984 366.439L298.03 356.439Z" fill="#ED9902"/>
<path d="M319 362.1L318.71 426.44C318.701 428.453 317.892 430.38 316.462 431.797C315.032 433.214 313.098 434.004 311.085 433.995C309.072 433.986 307.145 433.177 305.728 431.747C304.311 430.317 303.521 428.383 303.53 426.37L303.82 362.03L319 362.1Z" fill="#EBEBEB"/>
<path d="M318.05 380.71L317.85 426.39C317.842 428.17 317.127 429.873 315.863 431.126C314.599 432.379 312.89 433.078 311.11 433.07C309.33 433.062 307.627 432.347 306.374 431.083C305.121 429.819 304.422 428.11 304.43 426.33L304.64 380.65L318.05 380.71Z" fill="#37474F"/>
<path d="M321.419 356.445L301.48 356.354L301.434 366.354L321.374 366.445L321.419 356.445Z" fill="#455A64"/>
<path d="M350.89 395.9V403.09H266.93V395.9H280.56V398.31C280.56 399.5 283.92 400.45 288.04 400.45C292.16 400.45 295.52 399.5 295.52 398.31V395.9H304V398.31C304 399.5 307.34 400.45 311.47 400.45C315.6 400.45 318.94 399.5 318.94 398.31V395.9H327.39V398.31C327.39 399.5 330.73 400.45 334.86 400.45C338.99 400.45 342.34 399.5 342.34 398.31V395.9H350.89Z" fill="#455A64"/>
<path d="M350.9 403.09H266.93V405.99H350.9V403.09Z" fill="#263238"/>
<path d="M354.83 367.2H350.89V444.06H354.83V367.2Z" fill="#263238"/>
<path d="M195.26 434.68H121.79C121.79 434.68 131.58 402.2 136.4 390.84C137.16 391.485 137.988 392.045 138.87 392.51C139.571 392.883 140.308 393.185 141.07 393.41C141.541 393.563 142.022 393.683 142.51 393.77H142.67L143.15 393.83C147.29 394.17 153.3 391.03 159.15 388.89C161.647 387.871 164.283 387.234 166.97 387C172.11 386.78 177.6 389.39 180.78 391.22C185.52 402.5 195.26 434.68 195.26 434.68Z" fill="#ED9902"/>
<path d="M159.11 388.91C152.99 391.16 146.65 394.53 142.51 393.77C140.25 393.351 138.142 392.34 136.4 390.84C136.04 388.84 142.23 386.32 149.99 387C153.076 387.391 156.126 388.03 159.11 388.91V388.91Z" fill="#ED9902"/>
<g opacity="0.2">
<path d="M159.11 388.91C152.99 391.16 146.65 394.53 142.51 393.77C140.25 393.351 138.142 392.34 136.4 390.84C136.04 388.84 142.23 386.32 149.99 387C153.076 387.391 156.126 388.03 159.11 388.91V388.91Z" fill="black"/>
</g>
<path opacity="0.3" d="M132 412.57C131.839 412.57 131.68 412.54 131.53 412.48C131.243 412.353 131.018 412.118 130.904 411.826C130.79 411.533 130.796 411.208 130.92 410.92C137.02 396.99 146.76 374.09 146.92 371.92V346.74C146.947 346.444 147.084 346.17 147.303 345.97C147.522 345.77 147.808 345.659 148.105 345.659C148.402 345.659 148.688 345.77 148.907 345.97C149.126 346.17 149.263 346.444 149.29 346.74V372C149.29 374.64 136.87 403.21 133.06 411.91C132.964 412.109 132.813 412.276 132.625 412.393C132.438 412.51 132.221 412.571 132 412.57Z" fill="white"/>
<path opacity="0.3" d="M137.35 406.91C137.321 406.919 137.289 406.919 137.26 406.91C137.231 406.898 137.205 406.88 137.184 406.858C137.162 406.836 137.145 406.81 137.134 406.781C137.123 406.752 137.117 406.721 137.118 406.69C137.119 406.659 137.127 406.628 137.14 406.6C142 395.39 151.3 373.76 151.3 372V349.81C151.3 349.746 151.325 349.685 151.37 349.64C151.415 349.595 151.476 349.57 151.54 349.57C151.571 349.57 151.602 349.576 151.63 349.588C151.659 349.601 151.685 349.618 151.706 349.641C151.728 349.663 151.744 349.69 151.755 349.719C151.766 349.748 151.771 349.779 151.77 349.81V372C151.77 374.31 138.15 405.45 137.57 406.78C137.55 406.821 137.519 406.855 137.48 406.878C137.441 406.901 137.395 406.913 137.35 406.91Z" fill="white"/>
<g opacity="0.2">
<path d="M195.26 434.68H121.79C121.79 434.68 131.58 402.2 136.4 390.84L136.91 389.64C140.83 380.38 144.19 372.23 144.19 371.23V340.51H172.78V371.23C172.78 372.23 176.52 381.33 180.78 391.23C185.52 402.5 195.26 434.68 195.26 434.68Z" fill="white"/>
<path d="M195.26 434.68L158.63 434.89L121.79 435.01H121.35L121.47 434.59C123.83 426.763 126.263 418.957 128.77 411.17C130.04 407.29 131.32 403.4 132.67 399.54C134.02 395.68 135.46 391.83 137.09 388.09C138.72 384.35 140.24 380.55 141.75 376.76L142.85 373.91L143.36 372.48C143.522 372.05 143.639 371.604 143.71 371.15V365.02L143.76 340.51V340.06H144.21L172.8 340.12H173.19V340.51V365.03V371.16C173.254 371.633 173.374 372.096 173.55 372.54L174 374L175.1 376.86C176.6 380.65 178.18 384.42 179.76 388.19C182.912 395.739 185.682 403.442 188.06 411.27C190.53 419 192.92 426.85 195.26 434.68ZM195.26 434.68C192.82 426.88 190.31 419.103 187.73 411.35C186.42 407.47 185.1 403.61 183.73 399.77C182.36 395.93 180.9 392.12 179.24 388.38C177.58 384.64 176.05 380.85 174.53 377.05L173.41 374.19L172.88 372.74C172.679 372.233 172.544 371.702 172.48 371.16V365L172.42 340.48L172.81 340.87L144.22 340.93L144.67 340.48V364.99V371.12C144.602 371.682 144.465 372.233 144.26 372.76L143.73 374.21L142.61 377.07C141.09 380.87 139.49 384.63 137.9 388.4C136.31 392.17 134.81 395.93 133.45 399.79C132.09 403.65 130.78 407.51 129.5 411.38C126.953 419.14 124.487 426.927 122.1 434.74L121.79 434.32L158.42 434.44L195.26 434.68Z" fill="#263238"/>
<path d="M144.45 347.33C145.57 347.065 146.719 346.938 147.87 346.95C149.025 346.932 150.177 347.06 151.3 347.33C149.043 347.824 146.707 347.824 144.45 347.33Z" fill="#263238"/>
<path d="M144.45 350.88C144.985 350.627 145.569 350.496 146.16 350.496C146.751 350.496 147.335 350.627 147.87 350.88C147.333 351.124 146.75 351.25 146.16 351.25C145.57 351.25 144.987 351.124 144.45 350.88Z" fill="#263238"/>
<path d="M144.45 353.59C144.983 353.335 145.569 353.208 146.16 353.22C146.752 353.203 147.338 353.33 147.87 353.59C147.339 353.853 146.752 353.984 146.16 353.97C145.568 353.979 144.982 353.848 144.45 353.59V353.59Z" fill="#263238"/>
<path d="M144.45 356.31C144.985 356.057 145.569 355.926 146.16 355.926C146.751 355.926 147.335 356.057 147.87 356.31C147.333 356.554 146.75 356.68 146.16 356.68C145.57 356.68 144.987 356.554 144.45 356.31Z" fill="#263238"/>
<path d="M144.45 358.8C145.571 358.539 146.719 358.414 147.87 358.43C149.024 358.409 150.177 358.533 151.3 358.8C149.045 359.306 146.705 359.306 144.45 358.8V358.8Z" fill="#263238"/>
<path d="M144.45 362.35C144.982 362.092 145.568 361.961 146.16 361.97C146.752 361.956 147.339 362.087 147.87 362.35C147.333 362.594 146.75 362.72 146.16 362.72C145.57 362.72 144.987 362.594 144.45 362.35V362.35Z" fill="#263238"/>
<path d="M144.45 365.06C144.987 364.816 145.57 364.69 146.16 364.69C146.75 364.69 147.333 364.816 147.87 365.06C147.335 365.313 146.751 365.444 146.16 365.444C145.569 365.444 144.985 365.313 144.45 365.06V365.06Z" fill="#263238"/>
<path d="M144.45 367.78C144.982 367.522 145.568 367.391 146.16 367.4C146.752 367.386 147.339 367.517 147.87 367.78C147.338 368.04 146.752 368.167 146.16 368.15C145.569 368.162 144.983 368.035 144.45 367.78V367.78Z" fill="#263238"/>
</g>
<path d="M60.09 395.3H66.69C67.8036 395.3 68.9063 395.519 69.9352 395.945C70.964 396.372 71.8988 396.996 72.6863 397.784C73.4737 398.571 74.0983 399.506 74.5245 400.535C74.9507 401.564 75.17 402.666 75.17 403.78V435.43H51.62V403.78C51.62 401.533 52.512 399.377 54.1002 397.787C55.6883 396.197 57.8427 395.303 60.09 395.3V395.3Z" fill="#DBDBDB"/>
<path d="M69.47 389.41H57.33V396.46H69.47V389.41Z" fill="#DBDBDB"/>
<path d="M71.61 386.12H55.19V392.4H71.61V386.12Z" fill="#ED9902"/>
<path d="M70.97 410.19H53.59V426.07H70.97V410.19Z" fill="white"/>
<path d="M88.47 395.3H95.07C97.319 395.3 99.476 396.193 101.066 397.784C102.657 399.374 103.55 401.531 103.55 403.78V435.43H80V403.78C80 401.533 80.8921 399.377 82.4802 397.787C84.0683 396.197 86.2227 395.303 88.47 395.3V395.3Z" fill="#DBDBDB"/>
<path d="M97.84 389.41H85.7V396.46H97.84V389.41Z" fill="#DBDBDB"/>
<path d="M99.98 386.12H83.56V392.4H99.98V386.12Z" fill="#455A64"/>
<path d="M99.34 410.19H81.96V426.07H99.34V410.19Z" fill="white"/>
<path d="M446.37 407.58H437.5C437.5 407.58 435.38 374.93 415.62 373.29C405.16 372.43 395.52 379.87 388.01 388.24C395.44 379.81 408.62 368.92 421.18 368.92C440.11 368.92 446.37 407.58 446.37 407.58Z" fill="#263238"/>
<path d="M387.81 306.44L401.42 278.7L406.02 284.93L394.35 306.44H387.81Z" fill="#263238"/>
<path d="M406.962 280.501L391.441 309.928L398.499 313.651L414.021 284.224L406.962 280.501Z" fill="#455A64"/>
<path d="M398.51 313.69L402.74 312.54L415.52 288.87L414.04 284.26L398.51 313.69Z" fill="#37474F"/>
<path d="M364.477 309.518L364.065 309.336C362.727 308.742 361.162 309.346 360.568 310.684L354.174 325.099C353.581 326.437 354.184 328.003 355.522 328.596L355.934 328.778C357.271 329.372 358.837 328.768 359.43 327.431L365.824 313.015C366.418 311.677 365.814 310.111 364.477 309.518Z" fill="#37474F"/>
<path d="M380.67 319.224L380.258 319.042C378.921 318.449 377.355 319.052 376.762 320.39L370.368 334.805C369.774 336.143 370.378 337.709 371.715 338.302L372.127 338.485C373.465 339.078 375.03 338.475 375.624 337.137L382.018 322.721C382.611 321.383 382.008 319.818 380.67 319.224Z" fill="#37474F"/>
<path d="M371.919 315.849L371.187 315.524C369.375 314.72 367.254 315.538 366.45 317.35L358.361 335.587C357.557 337.399 358.375 339.52 360.187 340.324L360.919 340.649C362.731 341.453 364.852 340.635 365.656 338.823L373.745 320.586C374.549 318.774 373.731 316.653 371.919 315.849Z" fill="#37474F"/>
<path d="M402.793 235.118L402.061 234.794C400.249 233.99 398.128 234.807 397.324 236.62L389.235 254.856C388.431 256.669 389.249 258.79 391.061 259.594L391.792 259.918C393.605 260.722 395.726 259.904 396.53 258.092L404.619 239.855C405.422 238.043 404.605 235.922 402.793 235.118Z" fill="#37474F"/>
<path d="M414.742 240.395L414.011 240.07C412.198 239.267 410.077 240.084 409.274 241.897L401.185 260.133C400.381 261.945 401.198 264.066 403.011 264.87L403.742 265.195C405.554 265.999 407.675 265.181 408.479 263.369L416.568 245.132C417.372 243.32 416.555 241.199 414.742 240.395Z" fill="#37474F"/>
<path d="M360.66 309.92L389.23 250.44C389.23 250.44 397.39 250.71 411.51 260.51L381.16 319.85C373.726 317.96 366.752 314.581 360.66 309.92V309.92Z" fill="#37474F"/>
<path d="M386.84 324.83C386.84 324.83 359.92 316.88 352.52 309.6L354.88 304.29C367.458 306.267 379.295 311.52 389.2 319.52L386.84 324.83Z" fill="#455A64"/>
<path d="M412.54 262.2C412.54 262.2 401.88 253.12 387.42 250.39L389.89 245.13C405.17 244.87 415 257 415 257L412.54 262.2Z" fill="#455A64"/>
<path d="M392.7 298C392.7 298 380.92 290.21 370.77 287.69C370.625 287.634 370.495 287.547 370.386 287.436C370.278 287.325 370.194 287.193 370.141 287.047C370.088 286.901 370.067 286.746 370.079 286.591C370.091 286.436 370.135 286.286 370.21 286.15L372.98 280.26C373.13 279.998 373.368 279.797 373.652 279.694C373.936 279.592 374.247 279.594 374.53 279.7C382.457 281.619 389.913 285.123 396.45 290C396.729 290.132 396.944 290.369 397.049 290.66C397.154 290.95 397.14 291.27 397.01 291.55L394.24 297.43C394.177 297.57 394.088 297.695 393.976 297.8C393.864 297.904 393.733 297.985 393.59 298.038C393.446 298.091 393.294 298.115 393.141 298.109C392.988 298.102 392.838 298.065 392.7 298V298Z" fill="#455A64"/>
<path d="M411.68 290.73L413.81 289.73C413.81 289.73 443.52 303 442 338.39C441 361.85 423.86 378.08 423.86 378.08C423.86 378.08 444.68 351.21 436.86 326.34C429.04 301.47 411.68 290.73 411.68 290.73Z" fill="#455A64"/>
<path d="M439.58 340.83C437.87 362.47 423.84 378.08 423.84 378.08H402.53C392.76 365.23 377.22 357.72 377.22 357.72L394.22 360.72L395.73 359.94L398.73 358.41C398.73 358.41 403.04 365.01 409.53 364.86C410.858 364.833 412.167 364.541 413.38 364C420.96 360.72 424.79 340.59 421.25 328.57C417.71 316.55 402.2 309.1 402.2 309.1L411.68 290.73C428.63 298.34 441.28 319.19 439.58 340.83Z" fill="#37474F"/>
<path d="M409.57 364.85C409.57 364.85 403.99 366.74 395.76 359.92L398.76 358.39C398.76 358.39 403.07 364.99 409.56 364.84L409.57 364.85Z" fill="#455A64"/>
<path d="M437.5 407.58H374C375.59 405.1 378.33 400.64 382 395.73L382.23 395.41C382.33 395.28 382.43 395.16 382.52 395.03C382.576 394.944 382.636 394.86 382.7 394.78L383.25 394.07L383.41 393.86L384 393.1C384.32 392.69 384.67 392.25 385.06 391.78C385.45 391.31 385.61 391.11 385.89 390.78C386.33 390.26 386.79 389.71 387.29 389.14L388.07 388.25C395.58 379.88 405.22 372.44 415.68 373.3C435.38 374.93 437.5 407.58 437.5 407.58Z" fill="#455A64"/>
<path d="M392.217 353.08L329.754 347.868L329.094 355.78L391.557 360.992L392.217 353.08Z" fill="#263238"/>
<path d="M405.997 354.309L392.145 353.15L391.483 361.063L405.335 362.221L405.997 354.309Z" fill="#37474F"/>
<path d="M386.5 402.35C386.5 402.775 386.374 403.191 386.138 403.544C385.901 403.898 385.566 404.174 385.173 404.336C384.78 404.499 384.348 404.542 383.931 404.459C383.513 404.376 383.13 404.171 382.83 403.87C382.529 403.57 382.324 403.186 382.241 402.769C382.158 402.352 382.201 401.92 382.364 401.527C382.526 401.134 382.802 400.799 383.156 400.562C383.509 400.326 383.925 400.2 384.35 400.2C384.92 400.2 385.467 400.427 385.87 400.83C386.273 401.233 386.5 401.78 386.5 402.35V402.35Z" fill="#263238"/>
<path d="M431.16 402.35C431.16 402.775 431.034 403.19 430.798 403.543C430.563 403.897 430.227 404.172 429.835 404.335C429.443 404.498 429.011 404.542 428.594 404.459C428.177 404.377 427.794 404.173 427.493 403.874C427.192 403.574 426.987 403.192 426.903 402.776C426.818 402.359 426.86 401.927 427.021 401.534C427.182 401.141 427.456 400.805 427.808 400.567C428.16 400.33 428.575 400.202 429 400.2C429.283 400.199 429.564 400.253 429.826 400.361C430.088 400.468 430.326 400.626 430.527 400.826C430.727 401.026 430.887 401.263 430.995 401.525C431.104 401.786 431.16 402.067 431.16 402.35V402.35Z" fill="#263238"/>
<path d="M413.44 380.23C413.44 380.655 413.314 381.071 413.078 381.424C412.841 381.778 412.506 382.054 412.113 382.216C411.72 382.379 411.288 382.422 410.871 382.339C410.453 382.256 410.07 382.051 409.77 381.75C409.469 381.45 409.264 381.067 409.181 380.649C409.098 380.232 409.141 379.8 409.304 379.407C409.466 379.014 409.742 378.679 410.096 378.442C410.449 378.206 410.865 378.08 411.29 378.08C411.86 378.08 412.407 378.307 412.81 378.71C413.213 379.113 413.44 379.66 413.44 380.23V380.23Z" fill="#263238"/>
<path d="M396.92 264.83C396.92 265.255 396.794 265.671 396.558 266.024C396.321 266.378 395.986 266.654 395.593 266.816C395.2 266.979 394.768 267.022 394.351 266.939C393.934 266.856 393.55 266.651 393.25 266.35C392.949 266.05 392.744 265.667 392.661 265.249C392.578 264.832 392.621 264.4 392.784 264.007C392.946 263.614 393.222 263.279 393.576 263.042C393.929 262.806 394.345 262.68 394.77 262.68C395.34 262.68 395.887 262.907 396.29 263.31C396.693 263.713 396.92 264.26 396.92 264.83V264.83Z" fill="#263238"/>
<path d="M378.3 304.29C378.3 304.715 378.174 305.131 377.938 305.484C377.701 305.838 377.366 306.114 376.973 306.276C376.58 306.439 376.148 306.482 375.731 306.399C375.314 306.316 374.93 306.111 374.63 305.81C374.329 305.51 374.124 305.127 374.041 304.709C373.958 304.292 374.001 303.86 374.164 303.467C374.326 303.074 374.602 302.739 374.956 302.502C375.309 302.266 375.725 302.14 376.15 302.14C376.72 302.14 377.267 302.367 377.67 302.77C378.073 303.173 378.3 303.72 378.3 304.29V304.29Z" fill="#263238"/>
<path d="M417.67 305.05C417.67 305.475 417.544 305.891 417.308 306.244C417.071 306.598 416.736 306.874 416.343 307.036C415.95 307.199 415.518 307.242 415.101 307.159C414.684 307.076 414.3 306.871 414 306.57C413.699 306.27 413.494 305.887 413.411 305.469C413.328 305.052 413.371 304.62 413.534 304.227C413.696 303.834 413.972 303.499 414.326 303.262C414.679 303.026 415.095 302.9 415.52 302.9C416.09 302.9 416.637 303.127 417.04 303.53C417.443 303.933 417.67 304.48 417.67 305.05V305.05Z" fill="#263238"/>
<path d="M399.44 369.34C400.627 369.34 401.59 368.377 401.59 367.19C401.59 366.003 400.627 365.04 399.44 365.04C398.253 365.04 397.29 366.003 397.29 367.19C397.29 368.377 398.253 369.34 399.44 369.34Z" fill="#263238"/>
</svg>
