<svg width="500" height="500" viewBox="0 0 500 500" fill="none" xmlns="http://www.w3.org/2000/svg">
<path d="M144.35 233.97H93.88V366.4H144.35V233.97Z" fill="#ED9902"/>
<path opacity="0.2" d="M144.35 233.97H93.88V366.4H144.35V233.97Z" fill="black"/>
<path d="M406.13 233.97H355.66V366.4H406.13V233.97Z" fill="#ED9902"/>
<path opacity="0.2" d="M406.13 233.97H355.66V366.4H406.13V233.97Z" fill="black"/>
<path d="M355.67 140.75H144.34V366.4H355.67V140.75Z" fill="#ED9902"/>
<path opacity="0.2" d="M355.67 140.75H144.34V366.4H355.67V140.75Z" fill="black"/>
<g opacity="0.2">
<path d="M356.89 233.97H355.69V366.39H356.89V233.97Z" fill="black"/>
<path d="M144.94 233.97H143.74V366.39H144.94V233.97Z" fill="black"/>
<path d="M356.91 328H143.74V286.89H356.91V328ZM145 326.73H355.67V288.12H145V326.73Z" fill="black"/>
</g>
<g opacity="0.2">
<path d="M157.5 213.16C157.294 213.183 157.104 213.28 156.966 213.434C156.828 213.588 156.752 213.788 156.752 213.995C156.752 214.202 156.828 214.402 156.966 214.556C157.104 214.71 157.294 214.807 157.5 214.83C157.706 214.807 157.896 214.71 158.034 214.556C158.172 214.402 158.249 214.202 158.249 213.995C158.249 213.788 158.172 213.588 158.034 213.434C157.896 213.28 157.706 213.183 157.5 213.16V213.16Z" fill="black"/>
<path d="M158.93 315.41C158.724 315.433 158.534 315.53 158.396 315.684C158.258 315.838 158.182 316.038 158.182 316.245C158.182 316.452 158.258 316.652 158.396 316.806C158.534 316.96 158.724 317.057 158.93 317.08C159.136 317.057 159.326 316.96 159.464 316.806C159.602 316.652 159.678 316.452 159.678 316.245C159.678 316.038 159.602 315.838 159.464 315.684C159.326 315.53 159.136 315.433 158.93 315.41V315.41Z" fill="black"/>
<path d="M216.05 299.44C216.05 299.35 215.96 299.27 215.92 299.19C215.886 299.134 215.838 299.088 215.782 299.056C215.725 299.024 215.66 299.007 215.595 299.007C215.53 299.007 215.465 299.024 215.409 299.056C215.352 299.088 215.304 299.134 215.27 299.19C215.221 299.27 215.177 299.354 215.14 299.44C214.66 300.43 216.52 300.43 216.05 299.44Z" fill="black"/>
<path d="M132.62 317.51C132.62 317.43 132.54 317.34 132.49 317.26C132.456 317.204 132.408 317.158 132.352 317.126C132.295 317.094 132.23 317.077 132.165 317.077C132.1 317.077 132.035 317.094 131.979 317.126C131.922 317.158 131.874 317.204 131.84 317.26C131.79 317.34 131.75 317.43 131.71 317.51C131.24 318.5 133.1 318.5 132.62 317.51Z" fill="black"/>
<path d="M164.69 218.26C164.52 218.26 164.357 218.327 164.237 218.447C164.117 218.567 164.05 218.73 164.05 218.9C164.05 219.07 164.117 219.233 164.237 219.353C164.357 219.473 164.52 219.54 164.69 219.54C164.86 219.54 165.023 219.473 165.143 219.353C165.263 219.233 165.33 219.07 165.33 218.9C165.33 218.73 165.263 218.567 165.143 218.447C165.023 218.327 164.86 218.26 164.69 218.26V218.26Z" fill="black"/>
<path d="M120.2 283.07C120.045 283.089 119.903 283.165 119.8 283.282C119.697 283.399 119.64 283.549 119.64 283.705C119.64 283.861 119.697 284.011 119.8 284.128C119.903 284.245 120.045 284.321 120.2 284.34C120.355 284.321 120.497 284.245 120.6 284.128C120.703 284.011 120.76 283.861 120.76 283.705C120.76 283.549 120.703 283.399 120.6 283.282C120.497 283.165 120.355 283.089 120.2 283.07V283.07Z" fill="black"/>
<path d="M204 182.64C203.833 182.476 203.609 182.384 203.375 182.384C203.141 182.384 202.917 182.476 202.75 182.64C202.598 182.798 202.491 182.993 202.438 183.205C202.386 183.417 202.39 183.64 202.45 183.85C202.524 184.037 202.652 184.197 202.818 184.309C202.984 184.422 203.179 184.482 203.38 184.482C203.581 184.482 203.777 184.422 203.942 184.309C204.108 184.197 204.236 184.037 204.31 183.85C204.37 183.639 204.373 183.416 204.318 183.203C204.264 182.991 204.154 182.796 204 182.64Z" fill="black"/>
<path d="M165.93 310.68C165.763 310.516 165.539 310.424 165.305 310.424C165.071 310.424 164.847 310.516 164.68 310.68C164.528 310.836 164.421 311.029 164.368 311.24C164.316 311.45 164.32 311.671 164.38 311.88C164.455 312.063 164.584 312.22 164.748 312.331C164.913 312.441 165.107 312.5 165.305 312.5C165.503 312.5 165.697 312.441 165.862 312.331C166.027 312.22 166.155 312.063 166.23 311.88C166.293 311.671 166.298 311.45 166.245 311.239C166.192 311.028 166.083 310.835 165.93 310.68V310.68Z" fill="black"/>
<path d="M341.51 319.3C341.733 319.3 341.946 319.211 342.104 319.054C342.262 318.896 342.35 318.683 342.35 318.46C342.35 318.237 342.262 318.024 342.104 317.866C341.946 317.708 341.733 317.62 341.51 317.62C341.287 317.62 341.074 317.708 340.916 317.866C340.759 318.024 340.67 318.237 340.67 318.46C340.67 318.683 340.759 318.896 340.916 319.054C341.074 319.211 341.287 319.3 341.51 319.3Z" fill="black"/>
<path d="M290.77 207.74C290.976 207.717 291.166 207.62 291.304 207.466C291.442 207.312 291.519 207.112 291.519 206.905C291.519 206.698 291.442 206.498 291.304 206.344C291.166 206.19 290.976 206.093 290.77 206.07C290.564 206.093 290.374 206.19 290.236 206.344C290.098 206.498 290.022 206.698 290.022 206.905C290.022 207.112 290.098 207.312 290.236 207.466C290.374 207.62 290.564 207.717 290.77 207.74V207.74Z" fill="black"/>
<path d="M368.58 311.41C368.58 311.49 368.66 311.58 368.71 311.66C368.744 311.716 368.792 311.762 368.848 311.794C368.905 311.826 368.97 311.843 369.035 311.843C369.1 311.843 369.165 311.826 369.222 311.794C369.278 311.762 369.326 311.716 369.36 311.66C369.41 311.58 369.45 311.49 369.49 311.41C370 310.42 368.11 310.42 368.58 311.41Z" fill="black"/>
<path d="M265.27 261.06C265.437 261.224 265.661 261.316 265.895 261.316C266.129 261.316 266.353 261.224 266.52 261.06C266.673 260.903 266.782 260.709 266.835 260.496C266.887 260.283 266.882 260.06 266.82 259.85C266.745 259.667 266.617 259.51 266.452 259.399C266.287 259.289 266.093 259.23 265.895 259.23C265.697 259.23 265.503 259.289 265.338 259.399C265.174 259.51 265.045 259.667 264.97 259.85C264.911 260.06 264.907 260.283 264.96 260.495C265.012 260.707 265.119 260.902 265.27 261.06V261.06Z" fill="black"/>
</g>
<g opacity="0.2">
<path d="M145 328C145 328 198.22 338.38 250.3 338.38C302.38 338.38 355.66 328 355.66 328H145Z" fill="black"/>
</g>
<path d="M406.12 354.75H93.88V366.39H406.12V354.75Z" fill="#37474F"/>
<path d="M161.48 366.4L148.65 392.67L135.76 419.08H124.53L128.7 392.67L132.85 366.4H161.48Z" fill="#37474F"/>
<path d="M132.85 366.4H161.49L153.7 382.33H130.34L132.85 366.4Z" fill="#263238"/>
<path d="M370.66 419.08H359.44L346.55 392.67L333.71 366.4H362.35L366.49 392.67L370.66 419.08Z" fill="#37474F"/>
<path d="M364.86 382.33H341.5L333.71 366.4H362.34L364.86 382.33Z" fill="#263238"/>
<path d="M373.3 309.63C372.38 306.86 323.35 242.07 320 240.83C319.62 240.66 297.7 256.26 297.7 256.26C296.8 257.47 255.14 248.66 255.14 248.66L254.72 298.92L330.61 297.31C330.61 297.31 340.86 303.31 350.24 308.24C356.01 311.24 361.12 313.84 362.58 314.24C366.4 315.2 374.23 312.38 373.3 309.63Z" fill="#FFC4C0"/>
<path d="M362.61 314.23C361.14 313.85 356.04 311.29 350.28 308.23C340.91 303.32 330.66 297.28 330.66 297.28L313.77 297.65L287.28 255C293.09 256 297.42 256.64 297.71 256.26C297.71 256.26 319.61 240.66 320 240.83C323.35 242.07 372.38 306.83 373.3 309.62C374.22 312.41 366.4 315.21 362.61 314.23Z" fill="white"/>
<path d="M373.74 309.71C372.74 306.87 323.53 242.13 320.09 240.85C318.79 240.35 308.09 246.98 297.7 256.26L329.51 298C329.51 298 358.85 313.55 362.77 314.55C366.69 315.55 374.71 312.55 373.74 309.71Z" fill="#ED9902"/>
<path d="M370.45 310.75C361.93 300.1 328.56 256.34 320.94 245.17C320.88 245.07 320.94 245.03 321.01 245.11C329.69 255.49 362.7 299.52 370.63 310.62C370.79 310.85 370.63 311 370.45 310.75Z" fill="#263238"/>
<path d="M357.27 312.12C356.322 310.936 355.63 309.569 355.236 308.104C354.841 306.64 354.754 305.11 354.98 303.61C355.37 300.908 356.784 298.459 358.93 296.77C359 296.77 359.09 296.84 359.03 296.9C357.163 298.903 355.997 301.458 355.704 304.18C355.412 306.903 356.011 309.646 357.41 312C357.426 312.019 357.434 312.043 357.432 312.067C357.43 312.091 357.419 312.114 357.4 312.13C357.381 312.146 357.357 312.154 357.333 312.152C357.309 312.15 357.286 312.139 357.27 312.12Z" fill="#263238"/>
<path d="M333.18 300.54C329.82 296.24 327.52 290.04 329.02 284.64C329.08 284.43 329.37 284.51 329.41 284.69C330.305 290.005 331.77 295.209 333.78 300.21C333.803 300.287 333.799 300.369 333.769 300.443C333.739 300.518 333.684 300.579 333.614 300.618C333.543 300.657 333.462 300.67 333.383 300.656C333.304 300.642 333.232 300.601 333.18 300.54Z" fill="#263238"/>
<path d="M337 302.9C333.64 298.6 331.34 292.4 332.84 287C332.9 286.79 333.19 286.87 333.22 287.05C334.124 292.363 335.589 297.566 337.59 302.57C337.623 302.647 337.626 302.734 337.599 302.813C337.572 302.892 337.516 302.959 337.443 303C337.37 303.041 337.284 303.053 337.202 303.035C337.121 303.016 337.049 302.968 337 302.9V302.9Z" fill="#263238"/>
<path d="M340.9 305.26C337.54 300.96 335.24 294.76 336.74 289.36C336.79 289.15 337.09 289.23 337.12 289.41C338.024 294.723 339.489 299.926 341.49 304.93C341.523 305.007 341.526 305.094 341.499 305.173C341.472 305.252 341.416 305.319 341.343 305.36C341.27 305.401 341.184 305.413 341.102 305.395C341.021 305.376 340.949 305.328 340.9 305.26V305.26Z" fill="#263238"/>
<path d="M344.76 307.62C341.39 303.32 339.1 297.12 340.6 291.71C340.6 291.51 340.95 291.59 340.98 291.77C341.879 297.084 343.344 302.287 345.35 307.29C345.383 307.367 345.386 307.454 345.359 307.533C345.332 307.612 345.276 307.679 345.203 307.72C345.13 307.761 345.044 307.773 344.962 307.755C344.881 307.736 344.809 307.688 344.76 307.62Z" fill="#263238"/>
<path d="M312.74 255.77C309.04 250.89 316.63 245.14 320.33 250.03C324.03 254.92 316.44 260.66 312.74 255.77Z" fill="#263238"/>
<path d="M331.27 308.86C332.51 304.22 331.69 299.2 331.48 294.48C331.466 294.377 331.428 294.278 331.369 294.192C331.31 294.106 331.232 294.035 331.14 293.984C331.049 293.934 330.947 293.905 330.843 293.901C330.739 293.897 330.635 293.917 330.54 293.96C330.526 293.943 330.508 293.93 330.488 293.92C330.469 293.911 330.447 293.906 330.425 293.906C330.403 293.906 330.381 293.911 330.362 293.92C330.342 293.93 330.324 293.943 330.31 293.96C326.567 297.312 323.771 301.588 322.2 306.36C321.34 309.16 321.67 313.28 325.2 314.09C328.47 314.82 330.54 311.57 331.27 308.86ZM327.82 311.8C322.77 314.96 323.15 307.94 323.87 305.9C324.359 304.594 324.934 303.321 325.59 302.09C326.992 299.564 328.521 297.111 330.17 294.74C330.17 297.07 330.29 299.38 330.34 301.74C330.4 304.47 330.61 310.06 327.82 311.8Z" fill="#263238"/>
<path d="M315.8 280.6C313.23 283.1 315.08 286.8 317.25 288.76C321.055 292.04 325.655 294.261 330.59 295.2C330.612 295.205 330.634 295.204 330.655 295.199C330.677 295.193 330.697 295.183 330.713 295.168C330.73 295.154 330.743 295.135 330.751 295.115C330.759 295.094 330.762 295.072 330.76 295.05C330.865 295.04 330.965 295.005 331.054 294.948C331.143 294.892 331.217 294.815 331.271 294.724C331.324 294.634 331.356 294.532 331.362 294.427C331.369 294.322 331.351 294.217 331.31 294.12C329.06 289.97 327.17 285.24 323.71 281.9C321.69 280 318.24 278.24 315.8 280.6ZM326.61 288.52C327.77 290.52 328.82 292.6 330.05 294.57C327.414 293.391 324.84 292.076 322.34 290.63C321.137 289.921 319.988 289.125 318.9 288.25C317.23 286.88 313.28 281.06 319.24 281.16C322.53 281.22 325.23 286.12 326.61 288.52V288.52Z" fill="#263238"/>
<path d="M252.84 233.25H218.78C218.78 233.25 183.15 216.13 154.45 223C121.55 230.91 117.34 272.23 141.93 286.84C173.09 305.36 311.75 301.77 311.75 301.77L281.75 250.97C281.75 250.97 235.64 241.26 193.83 242.67L252.83 250.67L252.84 233.25Z" fill="#263238"/>
<path d="M283.77 254.28C283.736 254.197 283.716 254.109 283.71 254.02L283.65 253.8C283.65 253.64 283.57 253.48 283.52 253.31C283.423 252.97 283.306 252.636 283.17 252.31C283.05 251.98 282.9 251.66 282.75 251.31C282.586 250.996 282.399 250.696 282.19 250.41C282.19 250.41 282.14 250.41 282.11 250.41C282.094 250.406 282.076 250.406 282.06 250.41C282.06 250.41 282.01 250.41 281.98 250.41C281.957 250.404 281.933 250.404 281.91 250.41C276.84 249.41 242.38 244.53 237.26 243.95C232.14 243.37 226.91 242.88 221.73 242.45C211.392 241.552 201.016 241.178 190.64 241.33C189.64 241.33 188.7 241.38 187.73 241.42C187.52 241.35 187.3 241.31 187.09 241.26C186.59 241.14 186.09 241.02 185.59 240.92C184.66 240.74 183.71 240.6 182.77 240.46C180.77 240.16 178.84 239.95 176.89 239.59C176.866 239.59 176.843 239.599 176.826 239.616C176.809 239.633 176.8 239.656 176.8 239.68C176.8 239.704 176.809 239.727 176.826 239.744C176.843 239.761 176.866 239.77 176.89 239.77C178.89 240.2 180.79 240.77 182.75 241.2C183.32 241.32 183.88 241.45 184.45 241.56C180.65 241.76 176.85 242.05 173.06 242.4C173.04 242.407 173.023 242.419 173.01 242.436C172.998 242.453 172.991 242.474 172.991 242.495C172.991 242.516 172.998 242.537 173.01 242.554C173.023 242.571 173.04 242.583 173.06 242.59C178.22 242.28 183.42 242.24 188.6 242.33C193.78 242.42 198.86 242.53 203.99 242.83C214.37 243.42 224.73 244.35 235.07 245.43C240.87 246.04 276 251.17 281.82 251.43H281.89C281.94 251.56 281.99 251.7 282.05 251.83C282.21 252.14 282.37 252.46 282.55 252.76C282.708 253.062 282.881 253.356 283.07 253.64C283.16 253.78 283.25 253.92 283.35 254.06L283.5 254.27C283.559 254.337 283.609 254.411 283.65 254.49C283.64 254.48 283.84 254.4 283.77 254.28Z" fill="#455A64"/>
<path d="M300.94 298.71C299.08 295.71 297.5 292.58 295.8 289.52C294.1 286.46 292.39 283.38 290.68 280.31C287.27 274.19 275.03 253.61 273.82 252.17C273.74 252.08 273.59 252.17 273.62 252.29C274.2 253.88 281.84 267.51 283.62 270.54C287.14 276.62 290.83 282.54 294.48 288.54C295.48 290.25 296.59 291.94 297.65 293.65C298.71 295.36 299.83 297.02 300.79 298.77C300.83 298.92 301 298.82 300.94 298.71Z" fill="#455A64"/>
<path d="M273.47 257.29C270.41 256.55 267.28 256.08 264.19 255.49C261.1 254.9 257.99 254.32 254.89 253.75C248.69 252.597 242.477 251.493 236.25 250.44C223.85 248.36 211.39 246.62 198.86 245.44C191.79 244.76 184.71 244.32 177.62 243.8C177.47 243.8 177.48 244.02 177.62 244.03C190.23 244.6 202.83 246.31 215.32 248.1C227.81 249.89 240.04 251.83 252.32 253.91C255.8 254.497 259.28 255.093 262.76 255.7C266.29 256.31 269.82 257.06 273.37 257.51C273.55 257.51 273.61 257.32 273.47 257.29Z" fill="#455A64"/>
<path d="M308.71 474.94C305.71 474.64 231.45 441.26 229.42 438.19C228.64 437.04 232.87 425.93 238.42 412.66C239.6 409.8 240.85 406.85 242.13 403.86C250.4 384.43 259.64 364.01 259.64 364.01L309.39 386.2L290.51 425.43L286.37 434.05C286.37 434.05 309.09 459.55 310.96 463.15C312.83 466.75 311.7 475.24 308.71 474.94Z" fill="#FFC4C0"/>
<path d="M308.71 474.94C305.71 474.64 231.45 441.26 229.42 438.19C228.48 436.78 234.92 420.68 242.08 403.86L290.46 425.43L286.32 434.05C286.32 434.05 309.04 459.55 310.91 463.15C312.78 466.75 311.7 475.24 308.71 474.94Z" fill="white"/>
<path d="M308.71 474.94C305.71 474.64 231.45 441.26 229.42 438.19C228.64 437.04 232.87 425.93 238.42 412.66L286.37 434.05C286.37 434.05 309.09 459.55 310.96 463.15C312.83 466.75 311.7 475.24 308.71 474.94Z" fill="#ED9902"/>
<path d="M309 471.49C296.69 465.59 246.46 442.94 233.84 438.05C233.74 438.05 233.71 438.05 233.84 438.12C245.92 444.24 296.32 466.48 308.94 471.7C309.16 471.8 309.24 471.62 309 471.49Z" fill="#263238"/>
<path d="M307.33 458.33C305.96 457.674 304.469 457.308 302.951 457.257C301.433 457.205 299.921 457.468 298.51 458.03C295.967 459.02 293.901 460.95 292.74 463.42C292.74 463.5 292.85 463.56 292.89 463.49C294.423 461.215 296.652 459.499 299.243 458.598C301.833 457.696 304.646 457.658 307.26 458.49C307.28 458.493 307.3 458.49 307.318 458.48C307.335 458.471 307.349 458.456 307.357 458.437C307.366 458.419 307.367 458.398 307.362 458.379C307.357 458.359 307.346 458.342 307.33 458.33V458.33Z" fill="#263238"/>
<path d="M290.59 437.46C285.64 435.15 279.07 434.31 274.14 437C273.95 437.1 274.14 437.37 274.29 437.36C279.671 437.035 285.072 437.286 290.4 438.11C290.483 438.126 290.57 438.111 290.642 438.067C290.715 438.023 290.768 437.953 290.792 437.872C290.816 437.79 290.808 437.703 290.771 437.627C290.733 437.551 290.669 437.491 290.59 437.46V437.46Z" fill="#263238"/>
<path d="M293.77 440.69C288.77 438.38 282.25 437.54 277.32 440.23C277.13 440.33 277.32 440.6 277.46 440.59C282.845 440.265 288.249 440.516 293.58 441.34C293.663 441.356 293.75 441.341 293.822 441.297C293.895 441.253 293.948 441.183 293.972 441.102C293.996 441.02 293.988 440.933 293.951 440.857C293.913 440.781 293.849 440.721 293.77 440.69Z" fill="#263238"/>
<path d="M296.94 443.92C291.99 441.61 285.42 440.77 280.49 443.45C280.3 443.56 280.49 443.83 280.63 443.82C286.015 443.495 291.419 443.746 296.75 444.57C296.833 444.586 296.92 444.571 296.992 444.527C297.065 444.483 297.118 444.413 297.142 444.332C297.166 444.25 297.158 444.163 297.121 444.087C297.083 444.011 297.019 443.951 296.94 443.92Z" fill="#263238"/>
<path d="M300.11 447.15C295.16 444.84 288.59 444 283.66 446.68C283.47 446.79 283.66 447.06 283.81 447.05C289.191 446.725 294.592 446.976 299.92 447.8C300.003 447.816 300.09 447.801 300.162 447.757C300.235 447.713 300.288 447.643 300.312 447.562C300.336 447.48 300.328 447.393 300.291 447.317C300.253 447.241 300.189 447.181 300.11 447.15V447.15Z" fill="#263238"/>
<path d="M242.31 427.65C236.71 425.15 232.82 433.85 238.43 436.35C244.04 438.85 247.92 430.15 242.31 427.65Z" fill="#263238"/>
<path d="M302 426.58C300.41 423.36 296.32 423.97 293.79 425.45C289.49 428.054 285.951 431.744 283.53 436.15C283.518 436.17 283.512 436.192 283.51 436.215C283.508 436.238 283.512 436.261 283.521 436.282C283.53 436.303 283.543 436.322 283.56 436.338C283.577 436.353 283.598 436.364 283.62 436.37C283.57 436.77 283.85 437.26 284.34 437.17C288.99 436.31 294.07 435.97 298.34 433.71C300.76 432.39 303.45 429.63 302 426.58ZM291.12 434.43C288.84 434.9 286.56 435.27 284.3 435.83C286.237 433.686 288.283 431.644 290.43 429.71C291.48 428.785 292.593 427.933 293.76 427.16C295.58 426 302.34 424.04 300.4 429.68C299.29 432.8 293.8 433.86 291.08 434.43H291.12Z" fill="#263238"/>
<path d="M270.28 432.44C274.28 435.05 279.35 435.83 283.91 437.08C284.38 437.21 284.71 436.75 284.69 436.34C284.712 436.337 284.733 436.33 284.752 436.317C284.771 436.305 284.786 436.288 284.797 436.268C284.807 436.249 284.813 436.227 284.814 436.205C284.814 436.182 284.81 436.16 284.8 436.14C282.766 431.542 279.559 427.558 275.5 424.59C273.1 422.91 269.07 421.94 267.22 425.02C265.47 427.93 267.92 430.91 270.28 432.44ZM268.54 428.25C267.09 422.46 273.66 425 275.38 426.31C276.477 427.178 277.512 428.12 278.48 429.13C280.453 431.239 282.315 433.449 284.06 435.75C281.86 435 279.61 434.44 277.38 433.75C274.73 433 269.34 431.44 268.54 428.25V428.25Z" fill="#263238"/>
<path d="M243.21 399.3L299.21 424.6C299.21 424.6 365.82 296.76 367.56 257.6C369.04 224.3 345.86 211.45 270.91 232.99L252.55 233.22V245.89C260.61 246.95 282.11 250.33 282.11 250.33C297.75 256.23 302.79 258.67 302.54 259.18C263.48 338 243.21 399.3 243.21 399.3Z" fill="#263238"/>
<path d="M311.66 245.16C309.4 248.16 307.31 251.3 305.31 254.5C293.31 249.15 280.2 246.06 267.18 244.45C263.5 244.003 259.803 243.67 256.09 243.45C255.94 243.45 255.95 243.68 256.09 243.69C269.266 244.612 282.286 247.09 294.88 251.07C298.37 252.15 301.78 253.39 305.22 254.62C302.82 258.46 300.55 262.4 298.38 266.36C294.323 273.77 290.67 281.394 287.44 289.2C285.64 293.52 283.89 297.87 282.34 302.29C282.34 302.42 282.51 302.5 282.56 302.38C289.4 287.133 296.863 272.213 304.95 257.62C307.23 253.5 309.61 249.44 311.84 245.29C311.92 245.18 311.74 245 311.66 245.16Z" fill="#455A64"/>
<path d="M300.39 411.07C297.12 409.8 293.96 408.21 290.77 406.77L281.16 402.46C274.76 399.6 252.64 390.46 250.81 390C250.69 390 250.63 390.15 250.72 390.21C252.14 391.14 266.41 397.49 269.64 398.87C276.1 401.64 282.64 404.2 289.13 406.87C290.99 407.62 292.86 408.33 294.73 409.06C296.6 409.79 298.49 410.46 300.32 411.29C300.43 411.3 300.5 411.11 300.39 411.07Z" fill="#455A64"/>
<path d="M311.38 250.93C306.97 259.32 303.21 268.1 299.38 276.77C295.55 285.44 291.85 294.08 288.24 302.77C281.06 320.143 274.373 337.71 268.18 355.47C264.66 365.47 261.37 375.63 258.18 385.77C258.13 385.92 258.36 385.97 258.41 385.83C264.34 367.89 270.76 350.11 277.46 332.45C284.16 314.79 291.26 297.37 298.78 280.08C300.893 275.227 303.037 270.39 305.21 265.57C307.39 260.74 309.66 255.94 311.7 251.06C311.76 250.9 311.49 250.73 311.38 250.93Z" fill="#455A64"/>
<path d="M217.08 232.19C218.31 233.49 296.08 235.27 296.48 234.78C297.54 233.44 287.48 184.08 279.37 165.21C269 141 263.09 138.85 259.6 137.41C255.14 135.57 247.02 136 245.06 136.82C242.83 137.73 233.18 148.56 230.28 157.31C224.47 174.9 216 231.05 217.08 232.19Z" fill="#455A64"/>
<path d="M265.94 141.72H239.89C240.37 141.16 240.89 140.63 241.29 140.15H264.29C264.8 140.59 265.35 141.11 265.94 141.72ZM269.22 145.82H236.64L235.53 147.38H270.27C269.91 146.833 269.56 146.313 269.22 145.82V145.82ZM272.73 151.48H233C232.7 152 232.42 152.48 232.15 153.04H273.62L272.73 151.48ZM275.68 157.15H230.34L230.28 157.31C230.13 157.75 229.99 158.22 229.84 158.71H276.43C276.18 158.17 275.93 157.66 275.68 157.15V157.15ZM278.32 162.81H228.69C228.56 163.31 228.42 163.81 228.29 164.37H279L278.32 162.81ZM280.68 168.47H227.3C227.19 168.99 227.07 169.47 226.95 170.04H281.26C281.07 169.5 280.87 169 280.68 168.47V168.47ZM282.68 174.14H226.08C225.96 174.66 225.85 175.18 225.75 175.7H283.19L282.68 174.14ZM284.45 179.8H224.91C224.81 180.32 224.7 180.8 224.6 181.36H284.91C284.75 180.83 284.6 180.31 284.44 179.8H284.45ZM286.08 185.47H223.82C223.72 185.99 223.63 186.47 223.53 187.03H286.53C286.36 186.51 286.22 186 286.07 185.47H286.08ZM287.61 191.13H222.79C222.69 191.65 222.6 192.13 222.51 192.69H288C287.87 192.17 287.74 191.65 287.6 191.13H287.61ZM289.06 196.79H221.8L221.53 198.36H289.43C289.3 197.84 289.17 197.31 289.05 196.79H289.06ZM290.43 202.46H220.85C220.77 202.98 220.68 203.46 220.6 204.02H290.78L290.43 202.46ZM291.73 208.12H220L219.76 209.68H292.12C292 209.16 291.84 208.64 291.72 208.12H291.73ZM292.98 213.78H219.09C219.01 214.31 218.94 214.84 218.86 215.35H293.3L292.98 213.78ZM294.16 219.45H218.29C218.21 219.99 218.14 220.51 218.08 221.01H294.45C294.36 220.5 294.25 220 294.15 219.45H294.16ZM295.25 225.11H217.55C217.49 225.66 217.43 226.19 217.38 226.68H295.52C295.43 226.18 295.34 225.65 295.24 225.11H295.25ZM296.25 230.78H217C216.926 231.25 216.95 231.73 217.07 232.19C217.214 232.273 217.374 232.324 217.54 232.34H296.4C296.35 231.88 296.28 231.36 296.2 230.78H296.25Z" fill="#263238"/>
<path d="M272.49 144C306.03 169.2 335.03 204.18 332.25 215.26C329.3 226.97 306.12 240.07 285.64 242.74C281.45 243.29 268.48 212.54 272.77 211.13C276.12 210.03 291.34 205.7 293.16 203.62C294.42 202.17 270.81 168.95 263.16 151.62C255.08 133.41 263.51 137.21 272.49 144Z" fill="#FFC4C0"/>
<path d="M281.42 210.16C281.42 210.16 268.62 211.44 260.29 212.68C255.64 213.37 247.78 215.26 244.6 217.33C239.84 220.42 221.9 236.4 225.68 240.83C229.1 244.83 234.27 238.49 234.27 238.49C234.27 238.49 227.97 244.9 232.59 247.84C237.21 250.78 243.17 241.84 243.17 241.84C243.17 241.84 236.01 248.18 241.24 250.84C245.78 253.15 253.72 243.61 253.72 243.61C253.72 243.61 245.47 249.45 249.89 252.27C254.77 255.39 268.47 242.59 268.47 242.59C279.42 243.81 286.17 243.06 293.89 240.9C295.3 240.54 281.42 210.16 281.42 210.16Z" fill="#FFC4C0"/>
<path d="M241.25 244C241.74 243.32 242.25 242.65 242.75 242C243.695 240.662 244.716 239.38 245.81 238.16C246.9 236.99 248.04 235.87 249.21 234.78C250.38 233.69 251.82 232.61 253.02 231.43C253.028 231.416 253.039 231.405 253.052 231.396C253.065 231.388 253.08 231.382 253.095 231.38C253.111 231.379 253.127 231.381 253.141 231.386C253.156 231.392 253.169 231.4 253.18 231.412C253.191 231.423 253.198 231.437 253.203 231.452C253.207 231.467 253.208 231.483 253.205 231.498C253.202 231.514 253.196 231.528 253.186 231.541C253.176 231.553 253.164 231.563 253.15 231.57C251.941 232.721 250.8 233.939 249.73 235.22C248.64 236.44 247.57 237.67 246.49 238.9C245.41 240.13 244.32 241.23 243.23 242.4C242.69 242.99 242.23 243.6 241.66 244.2C241.209 244.811 240.707 245.383 240.16 245.91C240.147 245.916 240.132 245.918 240.117 245.916C240.103 245.914 240.089 245.908 240.078 245.898C240.066 245.889 240.058 245.877 240.053 245.863C240.048 245.849 240.047 245.834 240.05 245.82C240.384 245.172 240.786 244.562 241.25 244V244Z" fill="#263238"/>
<path d="M233 239.85C234.676 237.31 236.523 234.887 238.53 232.6C240.569 230.327 242.83 228.263 245.28 226.44C245.37 226.38 245.48 226.5 245.41 226.58C243.41 228.86 241.3 231.1 239.23 233.35C238.23 234.45 233.78 239.58 233.23 240.06C233.1 240.18 232.92 240 233 239.85Z" fill="#263238"/>
<path d="M248.91 248.13C250.532 245.771 252.309 243.523 254.23 241.4C256.385 239.435 258.681 237.63 261.1 236C261.19 236 261.31 236.06 261.23 236.14C259.08 238.14 256.91 240.06 254.87 242.14C253.87 243.14 250.13 247.44 249.09 248.33C249 248.37 248.85 248.24 248.91 248.13Z" fill="#263238"/>
<path d="M309.78 175L284.24 191.56C284.24 191.56 265.29 162.22 260.38 148.32C255.47 134.42 261.19 134.39 274.6 144.46C288.01 154.53 309.78 175 309.78 175Z" fill="#455A64"/>
<path d="M270.72 141.72H258.72C258.666 141.198 258.666 140.672 258.72 140.15H268.33C269 140.61 269.86 141.14 270.72 141.72ZM276.34 145.82H259.56C259.7 146.32 259.86 146.82 260.05 147.38H278.33L276.34 145.82ZM283.34 151.48H261.61C261.82 151.98 262.05 152.48 262.29 153.04H285.19C284.57 152.51 284 152 283.33 151.48H283.34ZM289.99 157.15H264.24L265.02 158.71H291.77L289.99 157.15ZM296.42 162.81H267.15C267.43 163.32 267.71 163.81 268 164.37H298.14L296.42 162.81ZM302.69 168.47H270.27L271.16 170.04H304.39L302.69 168.47ZM308.84 174.14H273.54C273.85 174.67 274.15 175.19 274.46 175.7H308.75L309.75 175.03L308.84 174.14ZM276.92 179.8L277.86 181.36H300L302.4 179.8H276.92ZM280.39 185.47L281.39 187.03H291.31L293.72 185.47H280.39ZM283.96 191.13L284.25 191.59L284.96 191.13H283.96Z" fill="#263238"/>
<path d="M304 171.37C294.26 179.12 284.64 184.37 282.73 185.72C282.64 185.78 282.56 185.63 282.65 185.57C284.59 184.39 295 176.73 303.9 171.21C304 171.14 304.07 171.3 304 171.37Z" fill="#263238"/>
<path d="M285.88 190.46C285.346 190.691 284.828 190.958 284.33 191.26C281.49 186.36 278.43 181.4 275.54 176.52L271.3 169.36C269.84 166.87 268.5 164.27 266.9 161.87C266.896 161.863 266.891 161.856 266.884 161.851C266.878 161.846 266.871 161.842 266.863 161.84C266.855 161.838 266.846 161.837 266.838 161.838C266.83 161.839 266.822 161.841 266.815 161.845C266.808 161.849 266.801 161.854 266.796 161.861C266.791 161.867 266.787 161.874 266.785 161.882C266.783 161.89 266.782 161.898 266.783 161.907C266.784 161.915 266.786 161.923 266.79 161.93C267.831 164.301 268.993 166.617 270.27 168.87C270.01 168.53 269.76 168.17 269.48 167.87C268.85 167.12 268.23 166.37 267.67 165.57C267.58 165.45 267.37 165.57 267.46 165.69C268 166.45 268.46 167.24 268.97 168.04C269.48 168.84 269.97 169.6 270.52 170.37C271.07 171.14 271.61 171.81 272.18 172.5C272.241 172.591 272.308 172.678 272.38 172.76C273.16 174.19 273.92 175.62 274.73 177.03C277.57 181.96 284.02 191.89 284.11 191.86C284.76 191.503 285.379 191.091 285.96 190.63C286 190.54 286 190.44 285.88 190.46Z" fill="#263238"/>
<path d="M230.47 143C203.25 157.14 177.69 174.34 172.89 186.29C169.89 193.81 173.6 207.44 176.63 215.63C178.11 219.63 215.76 204.09 212.63 200.78C204.89 192.6 203.63 189.32 204.48 187.66C205.01 186.6 234.8 160.74 243.16 149.08C254.82 132.84 242.38 136.81 230.47 143Z" fill="#FFC4C0"/>
<path d="M226.86 237.71C223.3 239.71 219.12 230.52 219.12 230.52C218.99 232.275 218.246 233.928 217.02 235.19C214.76 237.31 210.45 234.69 210.45 234.69C209.93 236.479 208.885 238.071 207.45 239.26C205.08 241.07 200.35 239.06 200.35 239.06C198.966 240.441 197.13 241.275 195.18 241.41C189.96 241.57 185.53 234.94 182.66 230.76C179.79 226.58 175.6 212.01 174.52 209.32L201.23 190.71C201.23 190.71 219.41 205.83 222.08 211.23C224.32 215.78 232.29 234.66 226.86 237.71Z" fill="#FFC4C0"/>
<path d="M219.18 230.39C218 225 215.43 219.88 213 215C212.94 214.89 212.77 215 212.83 215.08C215.36 219.93 216.65 225.57 218.99 230.5C219.009 230.51 219.031 230.515 219.053 230.515C219.075 230.514 219.096 230.508 219.115 230.497C219.134 230.486 219.15 230.471 219.161 230.452C219.173 230.433 219.179 230.412 219.18 230.39V230.39Z" fill="#263238"/>
<path d="M210.74 234.36C210.339 233.16 209.785 232.017 209.09 230.96C208.42 229.8 207.74 228.65 207.04 227.5C205.63 225.22 204.17 222.97 202.64 220.76C202.57 220.66 202.41 220.76 202.47 220.85C203.87 223.13 205.24 225.43 206.54 227.76C207.19 228.93 207.83 230.11 208.47 231.28C208.995 232.432 209.645 233.522 210.41 234.53C210.438 234.563 210.476 234.586 210.518 234.595C210.561 234.604 210.605 234.598 210.643 234.578C210.682 234.558 210.713 234.526 210.73 234.486C210.748 234.446 210.751 234.402 210.74 234.36V234.36Z" fill="#263238"/>
<path d="M200.29 239C199.917 237.915 199.362 236.9 198.65 236C197.98 235 197.33 233.94 196.65 232.91C195.34 230.84 194.04 228.77 192.81 226.66C192.795 226.644 192.775 226.634 192.754 226.63C192.732 226.627 192.71 226.631 192.691 226.641C192.672 226.651 192.656 226.667 192.647 226.687C192.638 226.707 192.635 226.729 192.64 226.75C193.88 228.9 195.09 231.07 196.35 233.21C196.97 234.21 197.59 235.31 198.22 236.36C198.7 237.369 199.357 238.283 200.16 239.06C200.24 239.06 200.31 239 200.29 239Z" fill="#263238"/>
<path d="M191.15 164.19L211.08 183.74C211.08 183.74 237.29 160.53 244.88 147.89C252.47 135.25 246.88 134.07 231.71 141.27C216.54 148.47 191.15 164.19 191.15 164.19Z" fill="#ED9902"/>
<path d="M191.15 164.19L211.08 183.74C211.08 183.74 237.29 160.53 244.88 147.89C252.47 135.25 246.88 134.07 231.71 141.27C216.54 148.47 191.15 164.19 191.15 164.19Z" fill="#455A64"/>
<path d="M248.2 140.15C248.134 140.683 248.017 141.209 247.85 141.72H230.78L231.71 141.27C232.55 140.87 233.36 140.5 234.14 140.15H248.2ZM222.79 145.82L219.91 147.38H245.18C245.5 146.84 245.8 146.31 246.07 145.82H222.79ZM212.59 151.48L209.86 153H241.27C241.68 152.47 242.07 152 242.45 151.44L212.59 151.48ZM202.82 157.15L200.21 158.71H236.5C236.96 158.19 237.42 157.71 237.86 157.15H202.82ZM193.4 162.81L191.15 164.19L191.33 164.37H231.25L232.73 162.81H193.4ZM195.51 168.47L197.11 170.04H225.66L227.23 168.47H195.51ZM201.29 174.14L202.88 175.7H219.8L221.45 174.14H201.29ZM207.06 179.8L208.65 181.36H213.72L215.42 179.8H207.06Z" fill="#263238"/>
<path d="M215.22 178.63C206.02 170.81 199.22 162.68 197.64 161.12C197.57 161.04 197.7 160.93 197.77 161.01C199.25 162.63 208.48 171.1 215.37 178.51C215.45 178.6 215.31 178.71 215.22 178.63Z" fill="#263238"/>
<path d="M232.85 152.64C231.85 154.78 230.85 156.91 230 159.11C230 158.96 230 158.82 230 158.67C230.108 157.324 230.312 155.987 230.61 154.67C230.61 154.52 230.42 154.45 230.38 154.6C230.08 155.93 229.81 157.28 229.6 158.6C229.49 159.25 229.43 159.9 229.38 160.55C229.385 160.63 229.385 160.71 229.38 160.79C229.374 160.816 229.374 160.844 229.38 160.87C228.38 163.8 227.8 166.8 226.97 169.76C226.966 169.774 226.965 169.79 226.967 169.804C226.969 169.819 226.974 169.834 226.981 169.847C226.988 169.86 226.998 169.871 227.01 169.88C227.022 169.889 227.036 169.896 227.05 169.9C227.064 169.904 227.08 169.905 227.094 169.903C227.109 169.901 227.124 169.896 227.137 169.889C227.15 169.882 227.161 169.872 227.17 169.86C227.179 169.848 227.186 169.834 227.19 169.82C228.01 166.92 229.19 164.11 230.19 161.28C231.19 158.45 232.05 155.56 233.03 152.71C233.06 152.62 232.89 152.54 232.85 152.64Z" fill="#263238"/>
<path d="M246.87 150.31C251.25 151.51 259.08 145.05 262.27 139.69C262.49 139.32 262.06 135.35 261.77 130.5C261.6 127.5 261.48 124.27 261.59 121.27C261.59 120.65 242.59 125.15 242.59 125.15C243.527 128.945 243.997 132.841 243.99 136.75C243.963 137.161 243.903 137.569 243.81 137.97C243.804 138.04 243.804 138.11 243.81 138.18C243.31 140.5 242.64 149.14 246.87 150.31Z" fill="#FFC4C0"/>
<path d="M260.43 121.3C259.37 126.3 255.76 138.5 245.7 138.3C245.056 138.303 244.413 138.246 243.78 138.13C243.773 138.06 243.773 137.99 243.78 137.92C243.873 137.519 243.933 137.111 243.96 136.7C243.967 132.787 243.497 128.889 242.56 125.09C242.56 125.09 256.32 121.9 260.43 121.3Z" fill="#263238"/>
<path d="M241.44 110.75C241.53 115.36 238.32 119.17 234.27 119.24C230.22 119.31 226.87 115.65 226.78 111.03C226.69 106.41 229.9 102.61 233.95 102.53C238 102.45 241.35 106.13 241.44 110.75Z" fill="#ED9902"/>
<path d="M235.839 120.464C240.345 120.377 243.917 116.144 243.819 111.009C243.72 105.873 239.988 101.78 235.482 101.867C230.976 101.953 227.403 106.187 227.502 111.322C227.6 116.457 231.333 120.55 235.839 120.464Z" fill="#C7C7C7"/>
<path d="M260.62 96.33C263.73 102.59 263.43 122.21 259.45 127.24C253.68 134.53 242.65 136.97 236.05 129.68C229.66 122.6 230.51 97.04 235.11 92.31C241.87 85.34 256 87.09 260.62 96.33Z" fill="#FFC4C0"/>
<path d="M245.16 113.38C245.16 113.38 245.26 113.44 245.26 113.5C245.2 114.82 245.36 116.34 246.55 116.79V116.87C245.09 116.65 244.9 114.62 245.16 113.38Z" fill="#263238"/>
<path d="M246.36 112C248.48 111.86 248.6 116.13 246.63 116.26C244.66 116.39 244.57 112.13 246.36 112Z" fill="#263238"/>
<path d="M237.77 113.63C237.77 113.63 237.66 113.7 237.67 113.75C237.75 115.07 237.61 116.59 236.43 117.07C236.43 117.07 236.43 117.15 236.43 117.14C237.9 116.89 238.05 114.87 237.77 113.63Z" fill="#263238"/>
<path d="M236.55 112.28C234.42 112.18 234.37 116.45 236.34 116.54C238.31 116.63 238.33 112.37 236.55 112.28Z" fill="#263238"/>
<path d="M248.23 108.58C247.646 108.538 247.065 108.462 246.49 108.35C245.865 108.351 245.258 108.147 244.76 107.77C244.627 107.623 244.547 107.436 244.533 107.239C244.518 107.041 244.57 106.845 244.68 106.68C244.946 106.383 245.287 106.163 245.666 106.041C246.046 105.92 246.451 105.902 246.84 105.99C247.657 106.041 248.425 106.398 248.99 106.99C249.097 107.136 249.162 107.308 249.179 107.488C249.196 107.668 249.164 107.849 249.086 108.012C249.008 108.175 248.887 108.314 248.736 108.414C248.586 108.514 248.411 108.572 248.23 108.58Z" fill="#263238"/>
<path d="M234.5 109.23C235.09 109.11 235.61 108.91 236.18 108.74C236.796 108.648 237.365 108.356 237.8 107.91C237.911 107.744 237.963 107.545 237.948 107.346C237.934 107.147 237.853 106.958 237.72 106.81C237.413 106.556 237.042 106.389 236.648 106.327C236.254 106.266 235.85 106.312 235.48 106.46C234.672 106.629 233.957 107.097 233.48 107.77C233.394 107.933 233.354 108.116 233.365 108.3C233.376 108.484 233.438 108.661 233.543 108.812C233.649 108.963 233.794 109.082 233.963 109.156C234.132 109.23 234.318 109.255 234.5 109.23V109.23Z" fill="#263238"/>
<path d="M247.72 125.6C247.41 125.91 247.1 126.35 246.63 126.4C246.138 126.404 245.651 126.305 245.2 126.11C245.2 126.11 245.11 126.11 245.14 126.18C245.337 126.434 245.599 126.63 245.898 126.748C246.197 126.866 246.523 126.901 246.84 126.85C247.106 126.771 247.343 126.615 247.521 126.401C247.699 126.188 247.81 125.926 247.84 125.65C247.86 125.57 247.76 125.55 247.72 125.6Z" fill="#263238"/>
<path d="M242.24 123.35C242.817 124.062 243.568 124.613 244.42 124.95C244.895 125.101 245.405 125.101 245.88 124.95C246.93 124.64 246.93 123.67 246.71 122.85C246.588 122.412 246.417 121.989 246.2 121.59C245.104 122.587 243.715 123.205 242.24 123.35V123.35Z" fill="#263238"/>
<path d="M244.42 125C244.895 125.151 245.405 125.151 245.88 125C246.93 124.69 246.93 123.72 246.71 122.9C246.147 122.939 245.613 123.167 245.197 123.549C244.781 123.931 244.507 124.442 244.42 125V125Z" fill="#FF98B9"/>
<path opacity="0.2" d="M262.71 110.25C261.43 110.01 258.47 105.58 257.2 103.82C255.93 102.06 255.43 92.76 255.36 90.66C257.614 92.0152 259.437 93.9811 260.62 96.33C262 99.13 262.71 104.6 262.71 110.25Z" fill="#263238"/>
<path d="M239.21 97.89C239.951 98.7465 240.898 99.3998 241.962 99.7883C243.026 100.177 244.171 100.287 245.29 100.11C246.435 99.9266 247.513 99.4523 248.422 98.7327C249.33 98.013 250.039 97.0721 250.48 96C250.48 95.94 250.6 96 250.58 96C250.211 97.163 249.532 98.2033 248.616 99.0086C247.7 99.814 246.581 100.354 245.38 100.57C244.191 100.721 242.983 100.556 241.877 100.093C240.771 99.6294 239.807 98.8836 239.08 97.93C239 97.91 239.14 97.81 239.21 97.89Z" fill="#263238"/>
<path d="M246 81.45C249.85 81.52 253.39 83.63 254.82 86.24C255.609 87.7261 255.873 89.435 255.57 91.09C255.57 91.16 255.42 91.15 255.43 91.09C255.499 89.6249 255.174 88.168 254.488 86.8715C253.802 85.5751 252.78 84.4867 251.53 83.72C250.162 82.8303 248.607 82.2705 246.986 82.0848C245.365 81.8991 243.723 82.0926 242.19 82.65C240.697 83.1682 239.433 84.1946 238.62 85.55C238.55 85.69 238.26 85.55 238.32 85.45C239.34 83 242.5 81.4 246 81.45Z" fill="#263238"/>
<path d="M223.68 89.93C224.295 88.0227 225.567 86.3959 227.27 85.34C229.62 83.87 232.27 84.07 234.94 84.34C235.02 84.34 235.01 84.46 234.94 84.45C232.68 84.24 230.38 84.16 228.31 85.24C226.595 86.1124 225.237 87.5551 224.47 89.32C223.734 91.1318 223.675 93.1482 224.305 94.9996C224.935 96.851 226.212 98.4133 227.9 99.4C228.886 99.9446 229.973 100.281 231.095 100.39C232.216 100.498 233.348 100.376 234.42 100.03C234.5 100.03 234.56 100.12 234.48 100.16C233.03 100.692 231.461 100.809 229.949 100.498C228.436 100.187 227.04 99.4606 225.918 98.3998C224.796 97.3389 223.992 95.9861 223.597 94.4934C223.201 93.0006 223.23 91.4272 223.68 89.95V89.93Z" fill="#263238"/>
<path d="M261.92 100.15C261.92 100.15 265.5 93.23 262.41 89.27C260.65 87.03 254.91 87.39 254.91 87.39C253.352 85.1207 250.956 83.5631 248.25 83.06C243.43 82.06 237.74 84.88 237.74 84.88C237.74 84.88 233.15 82.31 228.9 84.8C222.97 88.27 223.81 97.35 229.84 100.21C234.08 102.21 239.77 98.42 239.77 98.42C240.32 98.49 245.99 101.83 250.2 96.76C250.2 96.76 253.69 99.76 256.78 97.61C257.273 98.5094 258.03 99.2355 258.95 99.6899C259.869 100.144 260.906 100.305 261.92 100.15V100.15Z" fill="#263238"/>
<path d="M259.14 112.53C259.14 112.53 262.55 105.72 265.58 106.85C268.61 107.98 266.67 117.41 263.58 119.12C263.196 119.367 262.766 119.534 262.316 119.61C261.866 119.687 261.405 119.671 260.961 119.565C260.518 119.458 260.1 119.263 259.734 118.991C259.367 118.718 259.06 118.374 258.83 117.98L259.14 112.53Z" fill="#FFC4C0"/>
<path d="M265 109.54C265.05 109.54 265.07 109.6 265 109.63C262.83 110.9 261.93 113.22 261.4 115.56C261.501 115.31 261.654 115.084 261.85 114.899C262.046 114.713 262.28 114.573 262.536 114.486C262.791 114.4 263.062 114.37 263.331 114.398C263.599 114.426 263.858 114.512 264.09 114.65C264.16 114.65 264.09 114.79 264.09 114.78C263.671 114.706 263.239 114.762 262.853 114.94C262.467 115.119 262.144 115.412 261.93 115.78C261.584 116.414 261.309 117.085 261.11 117.78C261.03 118.01 260.64 117.95 260.69 117.7C260.16 114.75 261.84 110.3 265 109.54Z" fill="#263238"/>
<path d="M251.71 126.18L257.93 123.69L263.04 117.66L262.11 116.87L257.2 122.67L251.26 125.05L251.71 126.18Z" fill="#C7C7C7"/>
<path d="M252.39 125.22C251.84 123.41 246.8 123.94 247.64 126.68C248.48 129.42 253 127 252.39 125.22Z" fill="#37474F"/>
<path d="M265.68 106.67C265.68 106.67 266.61 96.61 263.81 90.98C260.68 84.71 247.22 78.47 237.74 84.88C237.74 84.88 252.98 82.56 259.81 91.32C262.69 95.01 262.31 106.85 262.31 106.85L265.68 106.67Z" fill="#C7C7C7"/>
<path d="M272.432 112.103C272.616 106.97 269.115 102.678 264.611 102.516C260.107 102.354 256.307 106.384 256.122 111.517C255.937 116.649 259.439 120.942 263.943 121.104C268.446 121.266 272.247 117.236 272.432 112.103Z" fill="#C7C7C7"/>
<path d="M258.5 111.31C258.33 115.92 261.5 119.78 265.5 119.92C269.5 120.06 272.97 116.45 273.13 111.84C273.29 107.23 270.13 103.37 266.13 103.22C262.13 103.07 258.66 106.7 258.5 111.31Z" fill="#ED9902"/>
<path d="M264.55 141.08C262.495 143.638 260.298 146.078 257.97 148.39C255.72 150.49 252.97 152.39 249.97 152.69C246.97 152.99 243.97 152.41 242.86 148.77C241.96 145.88 242.08 142.9 242.56 139.18C242.56 139.151 242.548 139.123 242.528 139.102C242.507 139.082 242.479 139.07 242.45 139.07C242.421 139.07 242.393 139.082 242.372 139.102C242.352 139.123 242.34 139.151 242.34 139.18C241.7 143.96 241.06 151.37 245.41 152.98C250.29 154.79 255.03 152.24 258.41 148.86C260.768 146.537 262.867 143.965 264.67 141.19C264.67 141.1 264.59 141 264.55 141.08Z" fill="#263238"/>
<path d="M289.61 250.56H200.68V254.55H289.61V250.56Z" fill="#C7C7C7"/>
<path d="M270.57 250.56L273.62 254.55H200.68V250.56H270.57Z" fill="#A6A6A6"/>
<path d="M266.77 254.55H180.1L172.89 195.69H259.56L266.77 254.55Z" fill="#C7C7C7"/>
<path d="M225.11 225.12C225.123 225.809 224.999 226.494 224.744 227.134C224.489 227.774 224.108 228.357 223.625 228.848C223.141 229.339 222.564 229.728 221.928 229.993C221.292 230.258 220.609 230.393 219.92 230.39C218.515 230.385 217.169 229.831 216.167 228.846C215.165 227.862 214.589 226.524 214.56 225.12C214.543 224.43 214.664 223.744 214.917 223.102C215.17 222.46 215.549 221.876 216.032 221.383C216.515 220.891 217.092 220.5 217.729 220.235C218.366 219.97 219.05 219.836 219.74 219.84C221.146 219.847 222.494 220.403 223.497 221.389C224.5 222.375 225.079 223.714 225.11 225.12V225.12Z" fill="white"/>
<path d="M466.23 262.33H373.51V274.21H466.23V262.33Z" fill="#455A64"/>
<path d="M463.61 274.21H376.12V277.92H463.61V274.21Z" fill="#37474F"/>
<path d="M451.12 364.54H388.62V368.25H451.12V364.54Z" fill="#455A64"/>
<path d="M386.59 419.08H381.96V277.92H394.59L386.59 419.08Z" fill="#455A64"/>
<path d="M394.59 277.92L394.12 286.27H381.96V277.92H394.59Z" fill="#263238"/>
<path d="M453.14 419.08H457.78V277.92H445.14L453.14 419.08Z" fill="#455A64"/>
<path d="M445.14 277.92L445.62 286.27H457.77V277.92H445.14Z" fill="#263238"/>
</svg>
